Raleway-Medium-Italic-TTF.ufo
<glyph name="ampersand" format="1">
  <advance width="672"/>
  <unicode hex="0026"/>
  <outline>
    <contour>
      <point x="402" y="98" type="line"/>
      <point x="353" y="47"/>
      <point x="241" y="-10"/>
      <point x="184" y="-10" type="qcurve"/>
      <point x="147" y="-10"/>
      <point x="86" y="15"/>
      <point x="42" y="58"/>
      <point x="17" y="118"/>
      <point x="17" y="154" type="qcurve"/>
      <point x="17" y="197"/>
      <point x="47" y="266"/>
      <point x="98" y="324"/>
      <point x="163" y="373"/>
      <point x="199" y="395" type="qcurve"/>
      <point x="170" y="440"/>
      <point x="145" y="505"/>
      <point x="145" y="534" type="qcurve"/>
      <point x="145" y="573"/>
      <point x="179" y="640"/>
      <point x="238" y="690"/>
      <point x="315" y="719"/>
      <point x="357" y="719" type="qcurve"/>
      <point x="411" y="719"/>
      <point x="495" y="663"/>
      <point x="516" y="614" type="qcurve"/>
      <point x="456" y="560" type="line"/>
      <point x="442" y="599"/>
      <point x="381" y="652"/>
      <point x="343" y="652" type="qcurve"/>
      <point x="320" y="652"/>
      <point x="278" y="635"/>
      <point x="246" y="606"/>
      <point x="228" y="568"/>
      <point x="228" y="548" type="qcurve"/>
      <point x="228" y="528"/>
      <point x="252" y="467"/>
      <point x="288" y="415" type="qcurve"/>
      <point x="415" y="232" type="line"/>
      <point x="436" y="272"/>
      <point x="468" y="365"/>
      <point x="477" y="416" type="qcurve"/>
      <point x="653" y="416" type="line"/>
      <point x="638" y="347" type="line"/>
      <point x="539" y="347" type="line"/>
      <point x="525" y="297"/>
      <point x="484" y="208"/>
      <point x="459" y="170" type="qcurve"/>
      <point x="578" y="0" type="line"/>
      <point x="469" y="0" type="line"/>
    </contour>
    <contour>
      <point x="203" y="60" type="qcurve"/>
      <point x="245" y="60"/>
      <point x="328" y="108"/>
      <point x="364" y="153" type="qcurve"/>
      <point x="236" y="339" type="line"/>
      <point x="177" y="301"/>
      <point x="103" y="219"/>
      <point x="103" y="165" type="qcurve"/>
      <point x="103" y="114"/>
      <point x="161" y="60"/>
    </contour>
  </outline>
</glyph>
<glyph name="parenleft" format="1">
  <advance width="278"/>
  <unicode hex="0028"/>
  <outline>
    <contour>
      <point x="42" y="261" type="qcurve"/>
      <point x="42" y="327"/>
      <point x="78" y="449"/>
      <point x="141" y="566"/>
      <point x="225" y="683"/>
      <point x="273" y="744" type="qcurve"/>
      <point x="334" y="714" type="line"/>
      <point x="307" y="681"/>
      <point x="234" y="580"/>
      <point x="170" y="460"/>
      <point x="125" y="330"/>
      <point x="125" y="268" type="qcurve"/>
      <point x="125" y="206"/>
      <point x="153" y="58"/>
      <point x="179" y="-8" type="qcurve"/>
      <point x="107" y="-42" type="line"/>
      <point x="78" y="27"/>
      <point x="42" y="187"/>
    </contour>
  </outline>
</glyph>
<glyph name="plus" format="1">
  <advance width="416"/>
  <unicode hex="002B"/>
  <outline>
    <contour>
      <point x="375" y="391" type="line"/>
      <point x="375" y="319" type="line"/>
      <point x="257" y="319" type="line"/>
      <point x="257" y="191" type="line"/>
      <point x="177" y="191" type="line"/>
      <point x="177" y="319" type="line"/>
      <point x="59" y="319" type="line"/>
      <point x="59" y="391" type="line"/>
      <point x="177" y="391" type="line"/>
      <point x="177" y="519" type="line"/>
      <point x="257" y="519" type="line"/>
      <point x="257" y="391" type="line"/>
    </contour>
  </outline>
</glyph>
<glyph name="zero" format="1">
  <advance width="594"/>
  <unicode hex="0030"/>
  <outline>
    <contour>
      <point x="231" y="-10" type="qcurve"/>
      <point x="188" y="-10"/>
      <point x="119" y="25"/>
      <point x="71" y="86"/>
      <point x="45" y="171"/>
      <point x="45" y="222" type="qcurve"/>
      <point x="45" y="300"/>
      <point x="97" y="436"/>
      <point x="184" y="538"/>
      <point x="298" y="597"/>
      <point x="360" y="597" type="qcurve"/>
      <point x="403" y="597"/>
      <point x="472" y="562"/>
      <point x="520" y="501"/>
      <point x="546" y="415"/>
      <point x="546" y="364" type="qcurve"/>
      <point x="546" y="286"/>
      <point x="494" y="150"/>
      <point x="406" y="48"/>
      <point x="292" y="-10"/>
    </contour>
    <contour>
      <point x="248" y="72" type="qcurve"/>
      <point x="289" y="72"/>
      <point x="365" y="116"/>
      <point x="422" y="192"/>
      <point x="456" y="295"/>
      <point x="456" y="354" type="qcurve"/>
      <point x="456" y="426"/>
      <point x="396" y="515"/>
      <point x="343" y="515" type="qcurve"/>
      <point x="301" y="515"/>
      <point x="225" y="470"/>
      <point x="168" y="394"/>
      <point x="134" y="290"/>
      <point x="134" y="232" type="qcurve"/>
      <point x="134" y="160"/>
      <point x="194" y="72"/>
    </contour>
  </outline>
</glyph>
<glyph name="one" format="1">
  <advance width="434"/>
  <unicode hex="0031"/>
  <outline>
    <contour>
      <point x="20" y="80" type="line"/>
      <point x="155" y="80" type="line"/>
      <point x="238" y="470" type="line"/>
      <point x="227" y="458"/>
      <point x="185" y="431"/>
      <point x="135" y="408"/>
      <point x="85" y="392"/>
      <point x="66" y="392" type="qcurve"/>
      <point x="84" y="476" type="line"/>
      <point x="105" y="476"/>
      <point x="161" y="501"/>
      <point x="215" y="534"/>
      <point x="255" y="565"/>
      <point x="259" y="571" type="qcurve"/>
      <point x="349" y="571" type="line"/>
      <point x="245" y="80" type="line"/>
      <point x="366" y="80" type="line"/>
      <point x="349" y="0" type="line"/>
      <point x="3" y="0" type="line"/>
    </contour>
  </outline>
</glyph>
<glyph name="equal" format="1">
  <advance width="479"/>
  <unicode hex="003D"/>
  <outline>
    <contour>
      <point x="81" y="179" type="line"/>
      <point x="81" y="239" type="line"/>
      <point x="386" y="239" type="line"/>
      <point x="386" y="179" type="line"/>
    </contour>
    <contour>
      <point x="81" y="313" type="line"/>
      <point x="81" y="373" type="line"/>
      <point x="386" y="373" type="line"/>
      <point x="386" y="313" type="line"/>
    </contour>
  </outline>
</glyph>
<glyph name="N" format="1">
  <advance width="739"/>
  <unicode hex="004E"/>
  <outline>
    <contour>
      <point x="473" y="708" type="move" name="top"/>
    </contour>
    <contour>
      <point x="327" y="0" type="move" name="bottom"/>
    </contour>
    <contour>
      <point x="171" y="710" type="line"/>
      <point x="241" y="710" type="line"/>
      <point x="535" y="157" type="line"/>
      <point x="652" y="709" type="line"/>
      <point x="742" y="709" type="line"/>
      <point x="591" y="0" type="line"/>
      <point x="516" y="0" type="line"/>
      <point x="225" y="542" type="line"/>
      <point x="110" y="0" type="line"/>
      <point x="20" y="0" type="line"/>
    </contour>
  </outline>
</glyph>
<glyph name="f" format="1">
  <advance width="334"/>
  <unicode hex="0066"/>
  <outline>
    <contour>
      <point x="126" y="453" type="line"/>
      <point x="59" y="453" type="line"/>
      <point x="74" y="522" type="line"/>
      <point x="141" y="522" type="line"/>
      <point x="143" y="533" type="line"/>
      <point x="162" y="630"/>
      <point x="270" y="740"/>
      <point x="341" y="740" type="qcurve"/>
      <point x="370" y="740"/>
      <point x="424" y="723"/>
      <point x="445" y="708" type="qcurve"/>
      <point x="409" y="643" type="line"/>
      <point x="398" y="653"/>
      <point x="361" y="665"/>
      <point x="343" y="665" type="qcurve"/>
      <point x="302" y="665"/>
      <point x="246" y="599"/>
      <point x="232" y="536" type="qcurve"/>
      <point x="229" y="522" type="line"/>
      <point x="360" y="522" type="line"/>
      <point x="345" y="453" type="line"/>
      <point x="214" y="453" type="line"/>
      <point x="73" y="-212" type="line"/>
      <point x="-15" y="-212" type="line"/>
    </contour>
  </outline>
</glyph>
<glyph name="l" format="1">
  <advance width="280"/>
  <unicode hex="006C"/>
  <outline>
    <contour>
      <point x="196" y="521" type="move" name="top"/>
    </contour>
    <contour>
      <point x="117" y="0" type="move" name="bottom"/>
    </contour>
    <contour>
      <point x="112" y="-7" type="qcurve"/>
      <point x="70" y="-7"/>
      <point x="25" y="34"/>
      <point x="25" y="71" type="qcurve"/>
      <point x="25" y="79"/>
      <point x="27" y="95"/>
      <point x="29" y="103" type="qcurve"/>
      <point x="162" y="730" type="line"/>
      <point x="249" y="730" type="line"/>
      <point x="123" y="135" type="line"/>
      <point x="122" y="130"/>
      <point x="121" y="121"/>
      <point x="121" y="116" type="qcurve"/>
      <point x="121" y="73"/>
      <point x="166" y="73" type="qcurve"/>
      <point x="177" y="73"/>
      <point x="207" y="80"/>
      <point x="221" y="85" type="qcurve"/>
      <point x="218" y="14" type="line"/>
      <point x="195" y="5"/>
      <point x="135" y="-7"/>
    </contour>
  </outline>
</glyph>
<glyph name="asciitilde" format="1">
  <advance width="513"/>
  <unicode hex="007E"/>
  <outline>
    <contour>
      <point x="49" y="237" type="line"/>
      <point x="50" y="243"/>
      <point x="70" y="279"/>
      <point x="105" y="318"/>
      <point x="154" y="349"/>
      <point x="186" y="349" type="qcurve"/>
      <point x="209" y="349"/>
      <point x="245" y="331"/>
      <point x="278" y="310"/>
      <point x="312" y="292"/>
      <point x="332" y="292" type="qcurve"/>
      <point x="351" y="292"/>
      <point x="379" y="307"/>
      <point x="399" y="325"/>
      <point x="409" y="342"/>
      <point x="409" y="344" type="qcurve"/>
      <point x="460" y="344" type="line"/>
      <point x="459" y="341"/>
      <point x="440" y="307"/>
      <point x="405" y="268"/>
      <point x="353" y="237"/>
      <point x="319" y="237" type="qcurve"/>
      <point x="295" y="237"/>
      <point x="257" y="254"/>
      <point x="224" y="275"/>
      <point x="192" y="293"/>
      <point x="174" y="293" type="qcurve"/>
      <point x="156" y="293"/>
      <point x="129" y="276"/>
      <point x="110" y="255"/>
      <point x="101" y="238"/>
      <point x="101" y="237" type="qcurve"/>
    </contour>
  </outline>
</glyph>
<glyph name="copyright" format="1">
  <advance width="849"/>
  <unicode hex="00A9"/>
  <outline>
    <contour>
      <point x="434" y="-7" type="qcurve"/>
      <point x="354" y="-7"/>
      <point x="219" y="48"/>
      <point x="121" y="145"/>
      <point x="65" y="277"/>
      <point x="65" y="355" type="qcurve"/>
      <point x="65" y="432"/>
      <point x="121" y="564"/>
      <point x="219" y="660"/>
      <point x="354" y="715"/>
      <point x="434" y="715" type="qcurve"/>
      <point x="514" y="715"/>
      <point x="651" y="660"/>
      <point x="751" y="564"/>
      <point x="807" y="432"/>
      <point x="807" y="355" type="qcurve"/>
      <point x="807" y="277"/>
      <point x="751" y="145"/>
      <point x="651" y="48"/>
      <point x="514" y="-7"/>
    </contour>
    <contour>
      <point x="434" y="31" type="qcurve"/>
      <point x="504" y="31"/>
      <point x="625" y="78"/>
      <point x="715" y="163"/>
      <point x="766" y="281"/>
      <point x="766" y="353" type="qcurve"/>
      <point x="766" y="422"/>
      <point x="716" y="541"/>
      <point x="627" y="628"/>
      <point x="506" y="677"/>
      <point x="434" y="677" type="qcurve"/>
      <point x="363" y="677"/>
      <point x="243" y="628"/>
      <point x="155" y="541"/>
      <point x="105" y="423"/>
      <point x="105" y="354" type="qcurve"/>
      <point x="105" y="285"/>
      <point x="155" y="167"/>
      <point x="243" y="80"/>
      <point x="363" y="31"/>
    </contour>
    <contour>
      <point x="442" y="121" type="qcurve"/>
      <point x="393" y="121"/>
      <point x="306" y="155"/>
      <point x="241" y="217"/>
      <point x="203" y="303"/>
      <point x="203" y="355" type="qcurve"/>
      <point x="203" y="398"/>
      <point x="232" y="482"/>
      <point x="290" y="549"/>
      <point x="378" y="590"/>
      <point x="437" y="590" type="qcurve"/>
      <point x="507" y="590"/>
      <point x="614" y="530"/>
      <point x="638" y="474" type="qcurve"/>
      <point x="553" y="447" type="line"/>
      <point x="544" y="467"/>
      <point x="515" y="493"/>
      <point x="484" y="508"/>
      <point x="451" y="514"/>
      <point x="437" y="514" type="qcurve"/>
      <point x="401" y="514"/>
      <point x="347" y="487"/>
      <point x="311" y="442"/>
      <point x="293" y="385"/>
      <point x="293" y="355" type="qcurve"/>
      <point x="293" y="317"/>
      <point x="320" y="258"/>
      <point x="362" y="218"/>
      <point x="414" y="197"/>
      <point x="439" y="197" type="qcurve"/>
      <point x="474" y="197"/>
      <point x="543" y="234"/>
      <point x="559" y="267" type="qcurve"/>
      <point x="644" y="241" type="line"/>
      <point x="636" y="221"/>
      <point x="600" y="178"/>
      <point x="548" y="143"/>
      <point x="481" y="121"/>
    </contour>
  </outline>
</glyph>
<glyph name="ordfeminine" format="1">
  <advance width="418"/>
  <unicode hex="00AA"/>
  <outline>
    <contour>
      <point x="191" y="519" type="move" name="top"/>
    </contour>
    <contour>
      <point x="384" y="11" type="move" name="bottom"/>
    </contour>
    <contour>
      <point x="165" y="344" type="qcurve"/>
      <point x="123" y="344"/>
      <point x="73" y="396"/>
      <point x="73" y="435" type="qcurve"/>
      <point x="73" y="464"/>
      <point x="99" y="512"/>
      <point x="145" y="547"/>
      <point x="206" y="567"/>
      <point x="241" y="567" type="qcurve"/>
      <point x="292" y="567"/>
      <point x="328" y="550" type="qcurve"/>
      <point x="333" y="575" type="line"/>
      <point x="336" y="588"/>
      <point x="336" y="599" type="qcurve"/>
      <point x="336" y="628"/>
      <point x="301" y="661"/>
      <point x="268" y="661" type="qcurve"/>
      <point x="242" y="661"/>
      <point x="185" y="640"/>
      <point x="152" y="620" type="qcurve"/>
      <point x="139" y="665" type="line"/>
      <point x="215" y="711"/>
      <point x="284" y="711" type="qcurve"/>
      <point x="342" y="711"/>
      <point x="406" y="659"/>
      <point x="406" y="608" type="qcurve"/>
      <point x="406" y="598"/>
      <point x="403" y="578"/>
      <point x="401" y="567" type="qcurve"/>
      <point x="373" y="436" type="line"/>
      <point x="372" y="433"/>
      <point x="372" y="427" type="qcurve"/>
      <point x="372" y="413"/>
      <point x="388" y="412" type="qcurve"/>
      <point x="375" y="350" type="line"/>
      <point x="360" y="347"/>
      <point x="348" y="347" type="qcurve"/>
      <point x="304" y="347"/>
      <point x="304" y="379" type="qcurve"/>
      <point x="304" y="384"/>
      <point x="306" y="395"/>
      <point x="308" y="409" type="qcurve"/>
      <point x="278" y="377"/>
      <point x="203" y="344"/>
    </contour>
    <contour>
      <point x="196" y="397" type="qcurve"/>
      <point x="213" y="397"/>
      <point x="251" y="408"/>
      <point x="283" y="426"/>
      <point x="305" y="449"/>
      <point x="308" y="461" type="qcurve"/>
      <point x="318" y="509" type="line"/>
      <point x="303" y="517"/>
      <point x="264" y="524"/>
      <point x="244" y="524" type="qcurve"/>
      <point x="200" y="524"/>
      <point x="141" y="483"/>
      <point x="141" y="450" type="qcurve"/>
      <point x="141" y="427"/>
      <point x="171" y="397"/>
    </contour>
  </outline>
</glyph>
<glyph name="threesuperior" format="1">
  <advance width="379"/>
  <unicode hex="00B3"/>
  <outline>
    <contour>
      <point x="204" y="394" type="qcurve"/>
      <point x="147" y="394"/>
      <point x="78" y="442"/>
      <point x="69" y="480" type="qcurve"/>
      <point x="109" y="518" type="line"/>
      <point x="109" y="507"/>
      <point x="122" y="484"/>
      <point x="147" y="463"/>
      <point x="187" y="450"/>
      <point x="214" y="450" type="qcurve"/>
      <point x="237" y="450"/>
      <point x="280" y="460"/>
      <point x="313" y="479"/>
      <point x="333" y="506"/>
      <point x="333" y="522" type="qcurve"/>
      <point x="333" y="552"/>
      <point x="265" y="583"/>
      <point x="205" y="583" type="qcurve"/>
      <point x="183" y="583" type="line"/>
      <point x="193" y="634" type="line"/>
      <point x="215" y="634" type="line"/>
      <point x="281" y="634"/>
      <point x="358" y="669"/>
      <point x="358" y="704" type="qcurve"/>
      <point x="358" y="731"/>
      <point x="311" y="760"/>
      <point x="276" y="760" type="qcurve"/>
      <point x="239" y="760"/>
      <point x="176" y="730"/>
      <point x="156" y="706" type="qcurve"/>
      <point x="129" y="749" type="line"/>
      <point x="154" y="778"/>
      <point x="242" y="811"/>
      <point x="287" y="811" type="qcurve"/>
      <point x="347" y="811"/>
      <point x="418" y="757"/>
      <point x="418" y="713" type="qcurve"/>
      <point x="418" y="675"/>
      <point x="361" y="622"/>
      <point x="309" y="611" type="qcurve"/>
      <point x="347" y="605"/>
      <point x="388" y="558"/>
      <point x="388" y="524" type="qcurve"/>
      <point x="388" y="493"/>
      <point x="355" y="444"/>
      <point x="302" y="411"/>
      <point x="237" y="394"/>
    </contour>
  </outline>
</glyph>
<glyph name="mu" format="1">
  <advance width="606"/>
  <unicode hex="00B5"/>
  <outline>
    <contour>
      <point x="124" y="522" type="line"/>
      <point x="212" y="522" type="line"/>
      <point x="149" y="226" type="line"/>
      <point x="140" y="187"/>
      <point x="140" y="157" type="qcurve"/>
      <point x="140" y="66"/>
      <point x="220" y="66" type="qcurve"/>
      <point x="269" y="66"/>
      <point x="371" y="135"/>
      <point x="406" y="195" type="qcurve"/>
      <point x="476" y="522" type="line"/>
      <point x="564" y="522" type="line"/>
      <point x="476" y="108" type="line"/>
      <point x="475" y="104"/>
      <point x="474" y="98"/>
      <point x="474" y="95" type="qcurve"/>
      <point x="474" y="77"/>
      <point x="497" y="76" type="qcurve"/>
      <point x="480" y="0" type="line"/>
      <point x="469" y="-2"/>
      <point x="451" y="-4"/>
      <point x="444" y="-4" type="qcurve"/>
      <point x="418" y="-4"/>
      <point x="389" y="19"/>
      <point x="389" y="39" type="qcurve"/>
      <point x="389" y="48"/>
      <point x="393" y="77"/>
      <point x="401" y="112" type="qcurve"/>
      <point x="385" y="88"/>
      <point x="339" y="44"/>
      <point x="285" y="10"/>
      <point x="227" y="-10"/>
      <point x="199" y="-10" type="qcurve"/>
      <point x="156" y="-10"/>
      <point x="114" y="35"/>
      <point x="110" y="67" type="qcurve"/>
      <point x="56" y="-212" type="line"/>
      <point x="-32" y="-212" type="line"/>
    </contour>
  </outline>
</glyph>
<glyph name="ordmasculine" format="1">
  <advance width="431"/>
  <unicode hex="00BA"/>
  <outline>
    <contour>
      <point x="225" y="519" type="move" name="top"/>
    </contour>
    <contour>
      <point x="224" y="0" type="move" name="bottom"/>
    </contour>
    <contour>
      <point x="223" y="344" type="qcurve"/>
      <point x="189" y="344"/>
      <point x="137" y="368"/>
      <point x="102" y="408"/>
      <point x="84" y="462"/>
      <point x="84" y="492" type="qcurve"/>
      <point x="84" y="535"/>
      <point x="118" y="614"/>
      <point x="177" y="675"/>
      <point x="256" y="711"/>
      <point x="301" y="711" type="qcurve"/>
      <point x="334" y="711"/>
      <point x="386" y="688"/>
      <point x="422" y="648"/>
      <point x="440" y="594"/>
      <point x="440" y="563" type="qcurve"/>
      <point x="440" y="521"/>
      <point x="406" y="442"/>
      <point x="348" y="381"/>
      <point x="268" y="344"/>
    </contour>
    <contour>
      <point x="236" y="405" type="qcurve"/>
      <point x="261" y="405"/>
      <point x="308" y="429"/>
      <point x="345" y="469"/>
      <point x="368" y="523"/>
      <point x="368" y="553" type="qcurve"/>
      <point x="368" y="595"/>
      <point x="324" y="649"/>
      <point x="288" y="649" type="qcurve"/>
      <point x="263" y="649"/>
      <point x="216" y="626"/>
      <point x="179" y="585"/>
      <point x="156" y="531"/>
      <point x="156" y="501" type="qcurve"/>
      <point x="156" y="459"/>
      <point x="200" y="405"/>
    </contour>
  </outline>
</glyph>
<glyph name="threequarters" format="1">
  <advance width="825"/>
  <unicode hex="00BE"/>
  <outline>
    <contour>
      <point x="189" y="314" type="qcurve"/>
      <point x="129" y="314"/>
      <point x="59" y="360"/>
      <point x="57" y="400" type="qcurve"/>
      <point x="97" y="438" type="line"/>
      <point x="97" y="427"/>
      <point x="110" y="403"/>
      <point x="135" y="383"/>
      <point x="174" y="370"/>
      <point x="200" y="370" type="qcurve"/>
      <point x="224" y="370"/>
      <point x="268" y="380"/>
      <point x="301" y="400"/>
      <point x="321" y="426"/>
      <point x="321" y="443" type="qcurve"/>
      <point x="321" y="472"/>
      <point x="253" y="503"/>
      <point x="193" y="503" type="qcurve"/>
      <point x="171" y="503" type="line"/>
      <point x="181" y="554" type="line"/>
      <point x="203" y="554" type="line"/>
      <point x="269" y="554"/>
      <point x="346" y="589"/>
      <point x="346" y="625" type="qcurve"/>
      <point x="346" y="651"/>
      <point x="298" y="680"/>
      <point x="265" y="680" type="qcurve"/>
      <point x="227" y="680"/>
      <point x="164" y="650"/>
      <point x="144" y="626" type="qcurve"/>
      <point x="117" y="669" type="line"/>
      <point x="142" y="698"/>
      <point x="229" y="731"/>
      <point x="276" y="731" type="qcurve"/>
      <point x="335" y="731"/>
      <point x="406" y="677"/>
      <point x="406" y="635" type="qcurve"/>
      <point x="406" y="594"/>
      <point x="349" y="542"/>
      <point x="297" y="531" type="qcurve"/>
      <point x="335" y="525"/>
      <point x="376" y="477"/>
      <point x="376" y="445" type="qcurve"/>
      <point x="376" y="413"/>
      <point x="344" y="365"/>
      <point x="291" y="331"/>
      <point x="224" y="314"/>
    </contour>
    <contour>
      <point x="635" y="100" type="line"/>
      <point x="421" y="100" type="line"/>
      <point x="432" y="153" type="line"/>
      <point x="717" y="406" type="line"/>
      <point x="755" y="406" type="line"/>
      <point x="701" y="154" type="line"/>
      <point x="758" y="154" type="line"/>
      <point x="746" y="100" type="line"/>
      <point x="690" y="100" type="line"/>
      <point x="669" y="0" type="line"/>
      <point x="614" y="0" type="line"/>
    </contour>
    <contour>
      <point x="649" y="154" type="line"/>
      <point x="687" y="334" type="line"/>
      <point x="489" y="154" type="line"/>
    </contour>
    <contour>
      <point x="111" y="33" type="line"/>
      <point x="449" y="370" type="line"/>
      <point x="776" y="715" type="line"/>
      <point x="811" y="678" type="line"/>
      <point x="477" y="343" type="line"/>
      <point x="145" y="-5" type="line"/>
    </contour>
  </outline>
</glyph>
<glyph name="questiondown" format="1">
  <advance width="457"/>
  <unicode hex="00BF"/>
  <outline>
    <contour>
      <point x="322" y="295" type="line"/>
      <point x="311" y="241"/>
      <point x="259" y="160"/>
      <point x="208" y="131" type="qcurve"/>
      <point x="186" y="118"/>
      <point x="129" y="89"/>
      <point x="78" y="49"/>
      <point x="43" y="-8"/>
      <point x="43" y="-48" type="qcurve"/>
      <point x="43" y="-93"/>
      <point x="98" y="-140"/>
      <point x="136" y="-140" type="qcurve"/>
      <point x="159" y="-140"/>
      <point x="204" y="-125"/>
      <point x="245" y="-99"/>
      <point x="280" y="-64"/>
      <point x="293" y="-45" type="qcurve"/>
      <point x="344" y="-84" type="line"/>
      <point x="324" y="-115"/>
      <point x="273" y="-163"/>
      <point x="213" y="-196"/>
      <point x="149" y="-213"/>
      <point x="118" y="-213" type="qcurve"/>
      <point x="87" y="-213"/>
      <point x="31" y="-194"/>
      <point x="-12" y="-157"/>
      <point x="-37" y="-100"/>
      <point x="-37" y="-61" type="qcurve"/>
      <point x="-37" y="-13"/>
      <point x="-11" y="53"/>
      <point x="32" y="102"/>
      <point x="91" y="138"/>
      <point x="124" y="155" type="qcurve"/>
      <point x="144" y="165"/>
      <point x="183" y="187"/>
      <point x="216" y="218"/>
      <point x="241" y="262"/>
      <point x="248" y="295" type="qcurve"/>
    </contour>
    <contour>
      <point x="365" y="506" type="line"/>
      <point x="340" y="390" type="line"/>
      <point x="267" y="390" type="line"/>
      <point x="291" y="506" type="line"/>
    </contour>
  </outline>
</glyph>
<glyph name="Aacute" format="1">
  <advance width="652"/>
  <unicode hex="00C1"/>
  <outline>
    <contour>
      <point x="378" y="710" type="line"/>
      <point x="455" y="710" type="line"/>
      <point x="578" y="0" type="line"/>
      <point x="482" y="0" type="line"/>
      <point x="448" y="208" type="line"/>
      <point x="170" y="208" type="line"/>
      <point x="49" y="0" type="line"/>
      <point x="-47" y="0" type="line"/>
    </contour>
    <contour>
      <point x="444" y="278" type="line"/>
      <point x="395" y="606" type="line"/>
      <point x="202" y="278" type="line"/>
    </contour>
    <contour>
      <point x="432" y="795" type="line"/>
      <point x="378" y="815" type="line"/>
      <point x="454" y="916" type="line"/>
      <point x="541" y="916" type="line"/>
    </contour>
  </outline>
</glyph>
<glyph name="Atilde" format="1">
  <advance width="652"/>
  <unicode hex="00C3"/>
  <outline>
    <contour>
      <point x="378" y="710" type="line"/>
      <point x="455" y="710" type="line"/>
      <point x="578" y="0" type="line"/>
      <point x="482" y="0" type="line"/>
      <point x="448" y="208" type="line"/>
      <point x="170" y="208" type="line"/>
      <point x="49" y="0" type="line"/>
      <point x="-47" y="0" type="line"/>
    </contour>
    <contour>
      <point x="444" y="278" type="line"/>
      <point x="395" y="606" type="line"/>
      <point x="202" y="278" type="line"/>
    </contour>
    <contour>
      <point x="495" y="813" type="qcurve"/>
      <point x="474" y="813"/>
      <point x="444" y="826"/>
      <point x="420" y="842"/>
      <point x="396" y="855"/>
      <point x="381" y="855" type="qcurve"/>
      <point x="365" y="855"/>
      <point x="344" y="841"/>
      <point x="331" y="824"/>
      <point x="325" y="808"/>
      <point x="325" y="807" type="qcurve"/>
      <point x="273" y="807" type="line"/>
      <point x="274" y="813"/>
      <point x="290" y="847"/>
      <point x="320" y="883"/>
      <point x="362" y="910"/>
      <point x="391" y="910" type="qcurve"/>
      <point x="411" y="910"/>
      <point x="439" y="897"/>
      <point x="462" y="880"/>
      <point x="487" y="867"/>
      <point x="504" y="867" type="qcurve"/>
      <point x="522" y="867"/>
      <point x="546" y="881"/>
      <point x="561" y="899"/>
      <point x="568" y="914"/>
      <point x="568" y="916" type="qcurve"/>
      <point x="619" y="916" type="line"/>
      <point x="618" y="910"/>
      <point x="602" y="877"/>
      <point x="571" y="841"/>
      <point x="526" y="813"/>
    </contour>
  </outline>
</glyph>
<glyph name="Adieresis" format="1">
  <advance width="652"/>
  <unicode hex="00C4"/>
  <outline>
    <contour>
      <point x="378" y="710" type="line"/>
      <point x="455" y="710" type="line"/>
      <point x="578" y="0" type="line"/>
      <point x="482" y="0" type="line"/>
      <point x="448" y="208" type="line"/>
      <point x="170" y="208" type="line"/>
      <point x="49" y="0" type="line"/>
      <point x="-47" y="0" type="line"/>
    </contour>
    <contour>
      <point x="444" y="278" type="line"/>
      <point x="395" y="606" type="line"/>
      <point x="202" y="278" type="line"/>
    </contour>
    <contour>
      <point x="309" y="811" type="line"/>
      <point x="331" y="913" type="line"/>
      <point x="405" y="913" type="line"/>
      <point x="383" y="811" type="line"/>
    </contour>
    <contour>
      <point x="466" y="811" type="line"/>
      <point x="488" y="913" type="line"/>
      <point x="561" y="913" type="line"/>
      <point x="540" y="811" type="line"/>
    </contour>
  </outline>
</glyph>
<glyph name="Aring" format="1">
  <advance width="652"/>
  <unicode hex="00C5"/>
  <outline>
    <contour>
      <point x="378" y="710" type="line"/>
      <point x="455" y="710" type="line"/>
      <point x="578" y="0" type="line"/>
      <point x="482" y="0" type="line"/>
      <point x="448" y="208" type="line"/>
      <point x="170" y="208" type="line"/>
      <point x="49" y="0" type="line"/>
      <point x="-47" y="0" type="line"/>
    </contour>
    <contour>
      <point x="444" y="278" type="line"/>
      <point x="395" y="606" type="line"/>
      <point x="202" y="278" type="line"/>
    </contour>
    <contour>
      <point x="364" y="834" type="qcurve"/>
      <point x="364" y="871"/>
      <point x="420" y="916"/>
      <point x="459" y="916" type="qcurve"/>
      <point x="490" y="916"/>
      <point x="524" y="886"/>
      <point x="524" y="860" type="qcurve"/>
      <point x="524" y="824"/>
      <point x="470" y="778"/>
      <point x="429" y="778" type="qcurve"/>
      <point x="399" y="778"/>
      <point x="364" y="808"/>
    </contour>
    <contour>
      <point x="452" y="885" type="qcurve"/>
      <point x="434" y="885"/>
      <point x="405" y="860"/>
      <point x="405" y="840" type="qcurve"/>
      <point x="405" y="827"/>
      <point x="422" y="809"/>
      <point x="436" y="809" type="qcurve"/>
      <point x="453" y="809"/>
      <point x="484" y="834"/>
      <point x="484" y="854" type="qcurve"/>
      <point x="484" y="868"/>
      <point x="466" y="885"/>
    </contour>
  </outline>
</glyph>
<glyph name="Egrave" format="1">
  <advance width="580"/>
  <unicode hex="00C8"/>
  <outline>
    <contour>
      <point x="171" y="710" type="line"/>
      <point x="621" y="710" type="line"/>
      <point x="604" y="630" type="line"/>
      <point x="244" y="630" type="line"/>
      <point x="195" y="400" type="line"/>
      <point x="508" y="400" type="line"/>
      <point x="492" y="325" type="line"/>
      <point x="179" y="325" type="line"/>
      <point x="127" y="80" type="line"/>
      <point x="496" y="80" type="line"/>
      <point x="479" y="0" type="line"/>
      <point x="20" y="0" type="line"/>
    </contour>
    <contour>
      <point x="351" y="917" type="line"/>
      <point x="437" y="917" type="line"/>
      <point x="471" y="816" type="line"/>
      <point x="410" y="796" type="line"/>
    </contour>
  </outline>
</glyph>
<glyph name="multiply" format="1">
  <advance width="471"/>
  <unicode hex="00D7"/>
  <outline>
    <contour>
      <point x="400" y="157" type="line"/>
      <point x="344" y="102" type="line"/>
      <point x="228" y="218" type="line"/>
      <point x="112" y="102" type="line"/>
      <point x="57" y="158" type="line"/>
      <point x="172" y="273" type="line"/>
      <point x="59" y="387" type="line"/>
      <point x="115" y="442" type="line"/>
      <point x="228" y="329" type="line"/>
      <point x="342" y="443" type="line"/>
      <point x="397" y="387" type="line"/>
      <point x="284" y="273" type="line"/>
    </contour>
  </outline>
</glyph>
<glyph name="atilde" format="1">
  <advance width="606"/>
  <unicode hex="00E3"/>
  <outline>
    <contour>
      <point x="208" y="-10" type="qcurve"/>
      <point x="164" y="-10"/>
      <point x="95" y="25"/>
      <point x="47" y="84"/>
      <point x="22" y="163"/>
      <point x="22" y="207" type="qcurve"/>
      <point x="22" y="270"/>
      <point x="70" y="387"/>
      <point x="149" y="477"/>
      <point x="254" y="531"/>
      <point x="311" y="531" type="qcurve"/>
      <point x="371" y="531"/>
      <point x="450" y="466"/>
      <point x="467" y="418" type="qcurve"/>
      <point x="490" y="522" type="line"/>
      <point x="578" y="522" type="line"/>
      <point x="490" y="108" type="line"/>
      <point x="489" y="104"/>
      <point x="488" y="98"/>
      <point x="488" y="95" type="qcurve"/>
      <point x="488" y="77"/>
      <point x="510" y="76" type="qcurve"/>
      <point x="494" y="0" type="line"/>
      <point x="483" y="-2"/>
      <point x="466" y="-4"/>
      <point x="459" y="-4" type="qcurve"/>
      <point x="431" y="-4"/>
      <point x="402" y="21"/>
      <point x="402" y="41" type="qcurve"/>
      <point x="402" y="57"/>
      <point x="411" y="98" type="qcurve"/>
      <point x="372" y="47"/>
      <point x="262" y="-10"/>
    </contour>
    <contour>
      <point x="246" y="66" type="qcurve"/>
      <point x="268" y="66"/>
      <point x="319" y="84"/>
      <point x="368" y="116"/>
      <point x="408" y="159"/>
      <point x="418" y="183" type="qcurve"/>
      <point x="449" y="333" type="line"/>
      <point x="446" y="358"/>
      <point x="422" y="403"/>
      <point x="387" y="436"/>
      <point x="344" y="455"/>
      <point x="321" y="455" type="qcurve"/>
      <point x="279" y="455"/>
      <point x="205" y="414"/>
      <point x="148" y="347"/>
      <point x="115" y="263"/>
      <point x="115" y="221" type="qcurve"/>
      <point x="115" y="189"/>
      <point x="133" y="132"/>
      <point x="168" y="90"/>
      <point x="216" y="66"/>
    </contour>
    <contour>
      <point x="402" y="627" type="qcurve"/>
      <point x="381" y="627"/>
      <point x="351" y="640"/>
      <point x="327" y="656"/>
      <point x="303" y="669"/>
      <point x="288" y="669" type="qcurve"/>
      <point x="272" y="669"/>
      <point x="251" y="655"/>
      <point x="238" y="638"/>
      <point x="232" y="622"/>
      <point x="232" y="621" type="qcurve"/>
      <point x="180" y="621" type="line"/>
      <point x="181" y="627"/>
      <point x="197" y="661"/>
      <point x="227" y="697"/>
      <point x="269" y="724"/>
      <point x="298" y="724" type="qcurve"/>
      <point x="318" y="724"/>
      <point x="346" y="711"/>
      <point x="369" y="694"/>
      <point x="394" y="681"/>
      <point x="411" y="681" type="qcurve"/>
      <point x="429" y="681"/>
      <point x="453" y="695"/>
      <point x="468" y="713"/>
      <point x="475" y="728"/>
      <point x="475" y="730" type="qcurve"/>
      <point x="526" y="730" type="line"/>
      <point x="525" y="724"/>
      <point x="509" y="691"/>
      <point x="478" y="655"/>
      <point x="433" y="627"/>
    </contour>
  </outline>
</glyph>
<glyph name="eth" format="1">
  <advance width="583"/>
  <unicode hex="00F0"/>
  <outline>
    <contour>
      <point x="563" y="676" type="line"/>
      <point x="476" y="628" type="line"/>
      <point x="516" y="566"/>
      <point x="549" y="431"/>
      <point x="549" y="372" type="qcurve"/>
      <point x="549" y="284"/>
      <point x="492" y="143"/>
      <point x="398" y="44"/>
      <point x="279" y="-10"/>
      <point x="218" y="-10" type="qcurve"/>
      <point x="174" y="-10"/>
      <point x="100" y="21"/>
      <point x="47" y="75"/>
      <point x="18" y="149"/>
      <point x="18" y="191" type="qcurve"/>
      <point x="18" y="247"/>
      <point x="67" y="349"/>
      <point x="148" y="427"/>
      <point x="252" y="473"/>
      <point x="306" y="473" type="qcurve"/>
      <point x="365" y="473"/>
      <point x="449" y="416"/>
      <point x="465" y="368" type="qcurve"/>
      <point x="465" y="385"/>
      <point x="463" y="416"/>
      <point x="461" y="432" type="qcurve"/>
      <point x="456" y="474"/>
      <point x="429" y="554"/>
      <point x="402" y="594" type="qcurve"/>
      <point x="292" y="532" type="line"/>
      <point x="273" y="569" type="line"/>
      <point x="376" y="627" type="line"/>
      <point x="354" y="653"/>
      <point x="296" y="704"/>
      <point x="258" y="730" type="qcurve"/>
      <point x="380" y="730" type="line"/>
      <point x="421" y="701"/>
      <point x="452" y="662" type="qcurve"/>
      <point x="544" y="713" type="line"/>
    </contour>
    <contour>
      <point x="109" y="202" type="qcurve"/>
      <point x="109" y="173"/>
      <point x="128" y="124"/>
      <point x="161" y="87"/>
      <point x="208" y="66"/>
      <point x="237" y="66" type="qcurve"/>
      <point x="276" y="66"/>
      <point x="350" y="100"/>
      <point x="407" y="156"/>
      <point x="441" y="229"/>
      <point x="441" y="268" type="qcurve"/>
      <point x="441" y="296"/>
      <point x="422" y="345"/>
      <point x="388" y="381"/>
      <point x="341" y="401"/>
      <point x="312" y="401" type="qcurve"/>
      <point x="273" y="401"/>
      <point x="200" y="369"/>
      <point x="143" y="314"/>
      <point x="109" y="242"/>
    </contour>
  </outline>
</glyph>
<glyph name="ntilde" format="1">
  <advance width="567"/>
  <unicode hex="00F1"/>
  <outline>
    <contour>
      <point x="116" y="522" type="line"/>
      <point x="196" y="522" type="line"/>
      <point x="172" y="410" type="line"/>
      <point x="213" y="465"/>
      <point x="337" y="531"/>
      <point x="403" y="531" type="qcurve"/>
      <point x="466" y="531"/>
      <point x="517" y="464"/>
      <point x="517" y="408" type="qcurve"/>
      <point x="517" y="386"/>
      <point x="510" y="338"/>
      <point x="505" y="312" type="qcurve"/>
      <point x="439" y="0" type="line"/>
      <point x="351" y="0" type="line"/>
      <point x="413" y="292" type="line"/>
      <point x="422" y="335"/>
      <point x="422" y="367" type="qcurve"/>
      <point x="422" y="452"/>
      <point x="351" y="452" type="qcurve"/>
      <point x="326" y="452"/>
      <point x="271" y="431"/>
      <point x="219" y="395"/>
      <point x="175" y="345"/>
      <point x="160" y="315" type="qcurve"/>
      <point x="93" y="0" type="line"/>
      <point x="5" y="0" type="line"/>
    </contour>
    <contour>
      <point x="385" y="627" type="qcurve"/>
      <point x="364" y="627"/>
      <point x="334" y="640"/>
      <point x="310" y="656"/>
      <point x="286" y="669"/>
      <point x="271" y="669" type="qcurve"/>
      <point x="255" y="669"/>
      <point x="234" y="655"/>
      <point x="221" y="638"/>
      <point x="215" y="622"/>
      <point x="215" y="621" type="qcurve"/>
      <point x="163" y="621" type="line"/>
      <point x="164" y="627"/>
      <point x="180" y="661"/>
      <point x="210" y="697"/>
      <point x="252" y="724"/>
      <point x="281" y="724" type="qcurve"/>
      <point x="301" y="724"/>
      <point x="329" y="711"/>
      <point x="352" y="694"/>
      <point x="377" y="681"/>
      <point x="394" y="681" type="qcurve"/>
      <point x="412" y="681"/>
      <point x="436" y="695"/>
      <point x="451" y="713"/>
      <point x="458" y="728"/>
      <point x="458" y="730" type="qcurve"/>
      <point x="509" y="730" type="line"/>
      <point x="508" y="724"/>
      <point x="492" y="691"/>
      <point x="461" y="655"/>
      <point x="416" y="627"/>
    </contour>
  </outline>
</glyph>
<glyph name="thorn" format="1">
  <advance width="578"/>
  <unicode hex="00FE"/>
  <outline>
    <contour>
      <point x="156" y="710" type="line"/>
      <point x="246" y="710" type="line"/>
      <point x="191" y="449" type="line"/>
      <point x="220" y="484"/>
      <point x="300" y="534"/>
      <point x="356" y="534" type="qcurve"/>
      <point x="402" y="534"/>
      <point x="471" y="498"/>
      <point x="517" y="438"/>
      <point x="541" y="361"/>
      <point x="541" y="321" type="qcurve"/>
      <point x="541" y="264"/>
      <point x="496" y="144"/>
      <point x="416" y="45"/>
      <point x="305" y="-18"/>
      <point x="238" y="-18" type="qcurve"/>
      <point x="178" y="-18"/>
      <point x="119" y="30"/>
      <point x="108" y="60" type="qcurve"/>
      <point x="50" y="-213" type="line"/>
      <point x="-40" y="-213" type="line"/>
    </contour>
    <contour>
      <point x="254" y="62" type="qcurve"/>
      <point x="295" y="62"/>
      <point x="367" y="103"/>
      <point x="420" y="170"/>
      <point x="450" y="256"/>
      <point x="450" y="301" type="qcurve"/>
      <point x="450" y="332"/>
      <point x="435" y="388"/>
      <point x="405" y="430"/>
      <point x="361" y="454"/>
      <point x="332" y="454" type="qcurve"/>
      <point x="308" y="454"/>
      <point x="262" y="436"/>
      <point x="220" y="406"/>
      <point x="183" y="366"/>
      <point x="168" y="344" type="qcurve"/>
      <point x="132" y="173" type="line"/>
      <point x="131" y="169"/>
      <point x="130" y="163"/>
      <point x="130" y="158" type="qcurve"/>
      <point x="130" y="140"/>
      <point x="149" y="105"/>
      <point x="182" y="78"/>
      <point x="228" y="62"/>
    </contour>
  </outline>
</glyph>
<glyph name="Dcaron" format="1">
  <advance width="692"/>
  <unicode hex="010E"/>
  <outline>
    <contour>
      <point x="310" y="892" type="line"/>
      <point x="363" y="916" type="line"/>
      <point x="430" y="853" type="line"/>
      <point x="524" y="916" type="line"/>
      <point x="567" y="892" type="line"/>
      <point x="451" y="802" type="line"/>
      <point x="387" y="802" type="line"/>
    </contour>
    <contour>
      <point x="171" y="710" type="line"/>
      <point x="406" y="710" type="line"/>
      <point x="473" y="710"/>
      <point x="572" y="668"/>
      <point x="636" y="594"/>
      <point x="668" y="494"/>
      <point x="668" y="437" type="qcurve"/>
      <point x="668" y="343"/>
      <point x="606" y="183"/>
      <point x="495" y="66"/>
      <point x="344" y="0"/>
      <point x="255" y="0" type="qcurve"/>
      <point x="20" y="0" type="line"/>
    </contour>
    <contour>
      <point x="272" y="80" type="line"/>
      <point x="342" y="80"/>
      <point x="454" y="136"/>
      <point x="533" y="231"/>
      <point x="575" y="355"/>
      <point x="575" y="423" type="qcurve"/>
      <point x="575" y="468"/>
      <point x="551" y="544"/>
      <point x="505" y="599"/>
      <point x="435" y="630"/>
      <point x="389" y="630" type="qcurve"/>
      <point x="244" y="630" type="line"/>
      <point x="127" y="80" type="line"/>
    </contour>
  </outline>
</glyph>
<glyph name="Itilde" format="1">
  <advance width="258"/>
  <unicode hex="0128"/>
  <outline>
    <contour>
      <point x="171" y="709" type="line"/>
      <point x="261" y="709" type="line"/>
      <point x="110" y="0" type="line"/>
      <point x="20" y="0" type="line"/>
    </contour>
    <contour>
      <point x="299" y="813" type="qcurve"/>
      <point x="278" y="813"/>
      <point x="248" y="826"/>
      <point x="224" y="842"/>
      <point x="200" y="855"/>
      <point x="185" y="855" type="qcurve"/>
      <point x="169" y="855"/>
      <point x="148" y="841"/>
      <point x="135" y="824"/>
      <point x="129" y="808"/>
      <point x="129" y="807" type="qcurve"/>
      <point x="77" y="807" type="line"/>
      <point x="78" y="813"/>
      <point x="94" y="847"/>
      <point x="124" y="883"/>
      <point x="166" y="910"/>
      <point x="195" y="910" type="qcurve"/>
      <point x="215" y="910"/>
      <point x="243" y="897"/>
      <point x="266" y="880"/>
      <point x="291" y="867"/>
      <point x="308" y="867" type="qcurve"/>
      <point x="326" y="867"/>
      <point x="350" y="881"/>
      <point x="365" y="899"/>
      <point x="372" y="914"/>
      <point x="372" y="916" type="qcurve"/>
      <point x="423" y="916" type="line"/>
      <point x="422" y="910"/>
      <point x="406" y="877"/>
      <point x="375" y="841"/>
      <point x="330" y="813"/>
    </contour>
  </outline>
</glyph>
<glyph name="Ibreve" format="1">
  <advance width="258"/>
  <unicode hex="012C"/>
  <outline>
    <contour>
      <point x="171" y="709" type="line"/>
      <point x="261" y="709" type="line"/>
      <point x="110" y="0" type="line"/>
      <point x="20" y="0" type="line"/>
    </contour>
    <contour>
      <point x="232" y="848" type="qcurve"/>
      <point x="252" y="848"/>
      <point x="292" y="887"/>
      <point x="301" y="916" type="qcurve"/>
      <point x="351" y="916" type="line"/>
      <point x="346" y="892"/>
      <point x="321" y="852"/>
      <point x="287" y="822"/>
      <point x="245" y="805"/>
      <point x="223" y="805" type="qcurve"/>
      <point x="184" y="805"/>
      <point x="138" y="852"/>
      <point x="138" y="890" type="qcurve"/>
      <point x="138" y="902"/>
      <point x="141" y="916" type="qcurve"/>
      <point x="192" y="916" type="line"/>
      <point x="191" y="911"/>
      <point x="190" y="904"/>
      <point x="190" y="899" type="qcurve"/>
      <point x="190" y="878"/>
      <point x="213" y="848"/>
    </contour>
  </outline>
</glyph>
<glyph name="Lcommaaccent" format="1">
  <advance width="559"/>
  <unicode hex="013B"/>
  <outline>
    <contour>
      <point x="178" y="-213" type="line"/>
      <point x="215" y="-132" type="line"/>
      <point x="190" y="-132" type="line"/>
      <point x="208" y="-48" type="line"/>
      <point x="285" y="-48" type="line"/>
      <point x="267" y="-132" type="line"/>
      <point x="221" y="-213" type="line"/>
    </contour>
    <contour>
      <point x="171" y="710" type="line"/>
      <point x="261" y="710" type="line"/>
      <point x="127" y="80" type="line"/>
      <point x="500" y="80" type="line"/>
      <point x="483" y="0" type="line"/>
      <point x="20" y="0" type="line"/>
    </contour>
  </outline>
</glyph>
<glyph name="obreve" format="1">
  <advance width="578"/>
  <unicode hex="014F"/>
  <outline>
    <contour>
      <point x="222" y="-10" type="qcurve"/>
      <point x="174" y="-10"/>
      <point x="99" y="25"/>
      <point x="48" y="84"/>
      <point x="22" y="163"/>
      <point x="22" y="208" type="qcurve"/>
      <point x="22" y="271"/>
      <point x="72" y="387"/>
      <point x="158" y="477"/>
      <point x="273" y="531"/>
      <point x="337" y="531" type="qcurve"/>
      <point x="385" y="531"/>
      <point x="460" y="496"/>
      <point x="512" y="437"/>
      <point x="539" y="357"/>
      <point x="539" y="312" type="qcurve"/>
      <point x="539" y="250"/>
      <point x="489" y="134"/>
      <point x="402" y="44"/>
      <point x="287" y="-10"/>
    </contour>
    <contour>
      <point x="239" y="66" type="qcurve"/>
      <point x="278" y="66"/>
      <point x="352" y="104"/>
      <point x="411" y="168"/>
      <point x="447" y="253"/>
      <point x="447" y="301" type="qcurve"/>
      <point x="447" y="334"/>
      <point x="429" y="390"/>
      <point x="396" y="431"/>
      <point x="349" y="455"/>
      <point x="321" y="455" type="qcurve"/>
      <point x="283" y="455"/>
      <point x="208" y="417"/>
      <point x="149" y="352"/>
      <point x="113" y="266"/>
      <point x="113" y="219" type="qcurve"/>
      <point x="113" y="186"/>
      <point x="131" y="130"/>
      <point x="164" y="89"/>
      <point x="210" y="66"/>
    </contour>
    <contour>
      <point x="359" y="662" type="qcurve"/>
      <point x="379" y="662"/>
      <point x="419" y="701"/>
      <point x="428" y="730" type="qcurve"/>
      <point x="478" y="730" type="line"/>
      <point x="473" y="706"/>
      <point x="448" y="666"/>
      <point x="414" y="636"/>
      <point x="372" y="619"/>
      <point x="350" y="619" type="qcurve"/>
      <point x="311" y="619"/>
      <point x="265" y="666"/>
      <point x="265" y="704" type="qcurve"/>
      <point x="265" y="716"/>
      <point x="268" y="730" type="qcurve"/>
      <point x="319" y="730" type="line"/>
      <point x="318" y="725"/>
      <point x="317" y="718"/>
      <point x="317" y="713" type="qcurve"/>
      <point x="317" y="692"/>
      <point x="340" y="662"/>
    </contour>
  </outline>
</glyph>
<glyph name="OE" format="1">
  <advance width="1077"/>
  <unicode hex="0152"/>
  <outline>
    <contour>
      <point x="295" y="-5" type="qcurve"/>
      <point x="235" y="-5"/>
      <point x="141" y="44"/>
      <point x="77" y="125"/>
      <point x="44" y="231"/>
      <point x="44" y="288" type="qcurve"/>
      <point x="44" y="369"/>
      <point x="112" y="523"/>
      <point x="224" y="643"/>
      <point x="371" y="715"/>
      <point x="449" y="715" type="qcurve"/>
      <point x="488" y="715"/>
      <point x="552" y="690"/>
      <point x="601" y="646"/>
      <point x="634" y="587"/>
      <point x="643" y="553" type="qcurve"/>
      <point x="676" y="710" type="line"/>
      <point x="1119" y="710" type="line"/>
      <point x="1102" y="630" type="line"/>
      <point x="749" y="630" type="line"/>
      <point x="701" y="402" type="line"/>
      <point x="1002" y="402" type="line"/>
      <point x="985" y="322" type="line"/>
      <point x="684" y="322" type="line"/>
      <point x="632" y="80" type="line"/>
      <point x="993" y="80" type="line"/>
      <point x="976" y="0" type="line"/>
      <point x="525" y="0" type="line"/>
      <point x="559" y="157" type="line"/>
      <point x="535" y="122"/>
      <point x="475" y="63"/>
      <point x="407" y="20"/>
      <point x="333" y="-5"/>
    </contour>
    <contour>
      <point x="312" y="76" type="qcurve"/>
      <point x="373" y="76"/>
      <point x="481" y="137"/>
      <point x="560" y="234"/>
      <point x="606" y="354"/>
      <point x="606" y="414" type="qcurve"/>
      <point x="606" y="458"/>
      <point x="583" y="538"/>
      <point x="538" y="598"/>
      <point x="473" y="634"/>
      <point x="431" y="634" type="qcurve"/>
      <point x="369" y="634"/>
      <point x="262" y="573"/>
      <point x="182" y="477"/>
      <point x="136" y="356"/>
      <point x="136" y="296" type="qcurve"/>
      <point x="136" y="252"/>
      <point x="159" y="172"/>
      <point x="204" y="112"/>
      <point x="269" y="76"/>
    </contour>
  </outline>
</glyph>
<glyph name="uni0162" format="1">
  <advance width="585"/>
  <unicode hex="0162"/>
  <outline>
    <contour>
      <point x="316" y="630" type="line"/>
      <point x="85" y="630" type="line"/>
      <point x="102" y="710" type="line"/>
      <point x="654" y="710" type="line"/>
      <point x="637" y="630" type="line"/>
      <point x="406" y="630" type="line"/>
      <point x="272" y="0" type="line"/>
      <point x="258" y="0" type="line"/>
      <point x="219" y="-48" type="line"/>
      <point x="227" y="-45"/>
      <point x="246" y="-43"/>
      <point x="254" y="-43" type="qcurve"/>
      <point x="283" y="-43"/>
      <point x="317" y="-68"/>
      <point x="317" y="-94" type="qcurve"/>
      <point x="317" y="-133"/>
      <point x="254" y="-182"/>
      <point x="193" y="-182" type="qcurve"/>
      <point x="164" y="-182"/>
      <point x="118" y="-171"/>
      <point x="101" y="-163" type="qcurve"/>
      <point x="129" y="-126" type="line"/>
      <point x="140" y="-133"/>
      <point x="183" y="-145"/>
      <point x="208" y="-145" type="qcurve"/>
      <point x="237" y="-145"/>
      <point x="271" y="-125"/>
      <point x="271" y="-103" type="qcurve"/>
      <point x="271" y="-87"/>
      <point x="248" y="-75"/>
      <point x="229" y="-75" type="qcurve"/>
      <point x="209" y="-75"/>
      <point x="163" y="-84"/>
      <point x="150" y="-88" type="qcurve"/>
      <point x="213" y="0" type="line"/>
      <point x="182" y="0" type="line"/>
    </contour>
  </outline>
</glyph>
<glyph name="wcircumflex" format="1">
  <advance width="768"/>
  <unicode hex="0175"/>
  <outline>
    <contour>
      <point x="306" y="640" type="line"/>
      <point x="422" y="730" type="line"/>
      <point x="486" y="730" type="line"/>
      <point x="563" y="640" type="line"/>
      <point x="510" y="616" type="line"/>
      <point x="443" y="679" type="line"/>
      <point x="349" y="616" type="line"/>
    </contour>
    <contour>
      <point x="49" y="522" type="line"/>
      <point x="140" y="522" type="line"/>
      <point x="223" y="77" type="line"/>
      <point x="255" y="119"/>
      <point x="312" y="200"/>
      <point x="338" y="242" type="qcurve"/>
      <point x="268" y="522" type="line"/>
      <point x="359" y="522" type="line"/>
      <point x="399" y="353" type="line"/>
      <point x="441" y="438"/>
      <point x="464" y="522" type="qcurve"/>
      <point x="548" y="522" type="line"/>
      <point x="528" y="453"/>
      <point x="467" y="314"/>
      <point x="425" y="245" type="qcurve"/>
      <point x="466" y="77" type="line"/>
      <point x="547" y="189"/>
      <point x="664" y="410"/>
      <point x="693" y="522" type="qcurve"/>
      <point x="777" y="522" type="line"/>
      <point x="741" y="391"/>
      <point x="596" y="131"/>
      <point x="494" y="0" type="qcurve"/>
      <point x="399" y="0" type="line"/>
      <point x="362" y="147" type="line"/>
      <point x="311" y="73"/>
      <point x="251" y="0" type="qcurve"/>
      <point x="156" y="0" type="line"/>
    </contour>
  </outline>
</glyph>
<glyph name="zacute" format="1">
  <advance width="470"/>
  <unicode hex="017A"/>
  <outline>
    <contour>
      <point x="278" y="609" type="line"/>
      <point x="224" y="629" type="line"/>
      <point x="300" y="730" type="line"/>
      <point x="387" y="730" type="line"/>
    </contour>
    <contour>
      <point x="-23" y="57" type="line"/>
      <point x="371" y="458" type="line"/>
      <point x="71" y="458" type="line"/>
      <point x="85" y="522" type="line"/>
      <point x="483" y="522" type="line"/>
      <point x="471" y="465" type="line"/>
      <point x="79" y="64" type="line"/>
      <point x="387" y="64" type="line"/>
      <point x="373" y="0" type="line"/>
      <point x="-35" y="0" type="line"/>
    </contour>
  </outline>
</glyph>
<glyph name="uni01C7" format="1">
  <advance width="1031"/>
  <unicode hex="01C7"/>
  <outline>
    <contour>
      <point x="171" y="710" type="line"/>
      <point x="261" y="710" type="line"/>
      <point x="127" y="80" type="line"/>
      <point x="500" y="80" type="line"/>
      <point x="483" y="0" type="line"/>
      <point x="20" y="0" type="line"/>
    </contour>
    <contour>
      <point x="657" y="-11" type="qcurve"/>
      <point x="572" y="-11"/>
      <point x="520" y="33" type="qcurve"/>
      <point x="558" y="106" type="line"/>
      <point x="573" y="92"/>
      <point x="633" y="70"/>
      <point x="674" y="70" type="qcurve"/>
      <point x="721" y="70"/>
      <point x="785" y="106"/>
      <point x="829" y="177"/>
      <point x="860" y="281"/>
      <point x="875" y="349" type="qcurve"/>
      <point x="952" y="709" type="line"/>
      <point x="1042" y="709" type="line"/>
      <point x="965" y="349" type="line"/>
      <point x="948" y="268"/>
      <point x="905" y="135"/>
      <point x="837" y="41"/>
      <point x="734" y="-11"/>
    </contour>
  </outline>
</glyph>
<glyph name="uni01C8" format="1">
  <advance width="791"/>
  <unicode hex="01C8"/>
  <outline>
    <contour>
      <point x="171" y="710" type="line"/>
      <point x="261" y="710" type="line"/>
      <point x="127" y="80" type="line"/>
      <point x="500" y="80" type="line"/>
      <point x="483" y="0" type="line"/>
      <point x="20" y="0" type="line"/>
    </contour>
    <contour>
      <point x="462" y="-186" type="qcurve"/>
      <point x="429" y="-186"/>
      <point x="375" y="-166"/>
      <point x="356" y="-144" type="qcurve"/>
      <point x="409" y="-85" type="line"/>
      <point x="420" y="-98"/>
      <point x="452" y="-108"/>
      <point x="469" y="-108" type="qcurve"/>
      <point x="484" y="-108"/>
      <point x="515" y="-95"/>
      <point x="542" y="-73"/>
      <point x="561" y="-41"/>
      <point x="565" y="-23" type="qcurve"/>
      <point x="681" y="522" type="line"/>
      <point x="769" y="522" type="line"/>
      <point x="654" y="-17" type="line"/>
      <point x="646" y="-54"/>
      <point x="607" y="-116"/>
      <point x="555" y="-161"/>
      <point x="493" y="-186"/>
    </contour>
    <contour>
      <point x="725" y="730" type="line"/>
      <point x="813" y="730" type="line"/>
      <point x="789" y="620" type="line"/>
      <point x="701" y="620" type="line"/>
    </contour>
  </outline>
</glyph>
<glyph name="uni01C9" format="1">
  <advance width="512"/>
  <unicode hex="01C9"/>
  <outline>
    <contour>
      <point x="112" y="-7" type="qcurve"/>
      <point x="70" y="-7"/>
      <point x="25" y="34"/>
      <point x="25" y="71" type="qcurve"/>
      <point x="25" y="79"/>
      <point x="27" y="95"/>
      <point x="29" y="103" type="qcurve"/>
      <point x="162" y="730" type="line"/>
      <point x="249" y="730" type="line"/>
      <point x="123" y="135" type="line"/>
      <point x="122" y="130"/>
      <point x="121" y="121"/>
      <point x="121" y="116" type="qcurve"/>
      <point x="121" y="73"/>
      <point x="166" y="73" type="qcurve"/>
      <point x="177" y="73"/>
      <point x="207" y="80"/>
      <point x="221" y="85" type="qcurve"/>
      <point x="218" y="14" type="line"/>
      <point x="195" y="5"/>
      <point x="135" y="-7"/>
    </contour>
    <contour>
      <point x="183" y="-186" type="qcurve"/>
      <point x="150" y="-186"/>
      <point x="96" y="-166"/>
      <point x="77" y="-144" type="qcurve"/>
      <point x="130" y="-85" type="line"/>
      <point x="141" y="-98"/>
      <point x="173" y="-108"/>
      <point x="190" y="-108" type="qcurve"/>
      <point x="205" y="-108"/>
      <point x="236" y="-95"/>
      <point x="263" y="-73"/>
      <point x="282" y="-41"/>
      <point x="286" y="-23" type="qcurve"/>
      <point x="402" y="522" type="line"/>
      <point x="490" y="522" type="line"/>
      <point x="375" y="-17" type="line"/>
      <point x="367" y="-54"/>
      <point x="328" y="-116"/>
      <point x="276" y="-161"/>
      <point x="214" y="-186"/>
    </contour>
    <contour>
      <point x="446" y="730" type="line"/>
      <point x="534" y="730" type="line"/>
      <point x="510" y="620" type="line"/>
      <point x="422" y="620" type="line"/>
    </contour>
  </outline>
</glyph>
<glyph name="uni01CC" format="1">
  <advance width="799"/>
  <unicode hex="01CC"/>
  <outline>
    <contour>
      <point x="116" y="522" type="line"/>
      <point x="196" y="522" type="line"/>
      <point x="172" y="410" type="line"/>
      <point x="213" y="465"/>
      <point x="337" y="531"/>
      <point x="403" y="531" type="qcurve"/>
      <point x="466" y="531"/>
      <point x="517" y="464"/>
      <point x="517" y="408" type="qcurve"/>
      <point x="517" y="386"/>
      <point x="510" y="338"/>
      <point x="505" y="312" type="qcurve"/>
      <point x="439" y="0" type="line"/>
      <point x="351" y="0" type="line"/>
      <point x="413" y="292" type="line"/>
      <point x="422" y="335"/>
      <point x="422" y="367" type="qcurve"/>
      <point x="422" y="452"/>
      <point x="351" y="452" type="qcurve"/>
      <point x="326" y="452"/>
      <point x="271" y="431"/>
      <point x="219" y="395"/>
      <point x="175" y="345"/>
      <point x="160" y="315" type="qcurve"/>
      <point x="93" y="0" type="line"/>
      <point x="5" y="0" type="line"/>
    </contour>
    <contour>
      <point x="470" y="-186" type="qcurve"/>
      <point x="437" y="-186"/>
      <point x="383" y="-166"/>
      <point x="364" y="-144" type="qcurve"/>
      <point x="417" y="-85" type="line"/>
      <point x="428" y="-98"/>
      <point x="460" y="-108"/>
      <point x="477" y="-108" type="qcurve"/>
      <point x="492" y="-108"/>
      <point x="523" y="-95"/>
      <point x="550" y="-73"/>
      <point x="569" y="-41"/>
      <point x="573" y="-23" type="qcurve"/>
      <point x="689" y="522" type="line"/>
      <point x="777" y="522" type="line"/>
      <point x="662" y="-17" type="line"/>
      <point x="654" y="-54"/>
      <point x="615" y="-116"/>
      <point x="563" y="-161"/>
      <point x="501" y="-186"/>
    </contour>
    <contour>
      <point x="733" y="730" type="line"/>
      <point x="821" y="730" type="line"/>
      <point x="797" y="620" type="line"/>
      <point x="709" y="620" type="line"/>
    </contour>
  </outline>
</glyph>
<glyph name="oogonek" format="1">
  <advance width="578"/>
  <unicode hex="01EB"/>
  <outline>
    <contour>
      <point x="187" y="-186" type="line"/>
      <point x="153" y="-179"/>
      <point x="119" y="-144"/>
      <point x="119" y="-121" type="qcurve"/>
      <point x="119" y="-93"/>
      <point x="162" y="-39"/>
      <point x="209" y="-10" type="qcurve"/>
      <point x="164" y="-7"/>
      <point x="94" y="29"/>
      <point x="47" y="88"/>
      <point x="22" y="165"/>
      <point x="22" y="208" type="qcurve"/>
      <point x="22" y="271"/>
      <point x="72" y="387"/>
      <point x="158" y="477"/>
      <point x="273" y="531"/>
      <point x="337" y="531" type="qcurve"/>
      <point x="385" y="531"/>
      <point x="460" y="496"/>
      <point x="512" y="437"/>
      <point x="539" y="357"/>
      <point x="539" y="312" type="qcurve"/>
      <point x="539" y="255"/>
      <point x="497" y="149"/>
      <point x="424" y="63"/>
      <point x="326" y="3"/>
      <point x="269" y="-6" type="qcurve"/>
      <point x="216" y="-36"/>
      <point x="173" y="-81"/>
      <point x="173" y="-104" type="qcurve"/>
      <point x="173" y="-136"/>
      <point x="218" y="-140" type="qcurve"/>
    </contour>
    <contour>
      <point x="239" y="66" type="qcurve"/>
      <point x="278" y="66"/>
      <point x="352" y="104"/>
      <point x="411" y="168"/>
      <point x="447" y="253"/>
      <point x="447" y="301" type="qcurve"/>
      <point x="447" y="334"/>
      <point x="429" y="390"/>
      <point x="396" y="431"/>
      <point x="349" y="455"/>
      <point x="321" y="455" type="qcurve"/>
      <point x="283" y="455"/>
      <point x="208" y="417"/>
      <point x="149" y="352"/>
      <point x="113" y="266"/>
      <point x="113" y="219" type="qcurve"/>
      <point x="113" y="186"/>
      <point x="131" y="130"/>
      <point x="164" y="89"/>
      <point x="210" y="66"/>
    </contour>
  </outline>
</glyph>
<glyph name="Iinvertedbreve" format="1">
  <advance width="258"/>
  <unicode hex="020A"/>
  <outline>
    <contour>
      <point x="171" y="709" type="line"/>
      <point x="261" y="709" type="line"/>
      <point x="110" y="0" type="line"/>
      <point x="20" y="0" type="line"/>
    </contour>
    <contour>
      <point x="132" y="805" type="line"/>
      <point x="137" y="829"/>
      <point x="161" y="869"/>
      <point x="196" y="899"/>
      <point x="237" y="916"/>
      <point x="259" y="916" type="qcurve"/>
      <point x="297" y="916"/>
      <point x="344" y="865"/>
      <point x="344" y="829" type="qcurve"/>
      <point x="344" y="817"/>
      <point x="341" y="805" type="qcurve"/>
      <point x="292" y="805" type="line"/>
      <point x="293" y="812"/>
      <point x="294" y="824"/>
      <point x="294" y="830" type="qcurve"/>
      <point x="294" y="873"/>
      <point x="253" y="873" type="qcurve"/>
      <point x="221" y="873"/>
      <point x="189" y="834"/>
      <point x="182" y="805" type="qcurve"/>
    </contour>
  </outline>
</glyph>
<glyph name="Rinvertedbreve" format="1">
  <advance width="633"/>
  <unicode hex="0212"/>
  <outline>
    <contour>
      <point x="20" y="0" type="line"/>
      <point x="171" y="710" type="line"/>
      <point x="461" y="710" type="line"/>
      <point x="499" y="710"/>
      <point x="559" y="678"/>
      <point x="601" y="626"/>
      <point x="623" y="558"/>
      <point x="623" y="522" type="qcurve"/>
      <point x="623" y="480"/>
      <point x="593" y="399"/>
      <point x="542" y="332"/>
      <point x="473" y="282"/>
      <point x="433" y="272" type="qcurve"/>
      <point x="538" y="0" type="line"/>
      <point x="436" y="0" type="line"/>
      <point x="338" y="255" type="line"/>
      <point x="164" y="255" type="line"/>
      <point x="110" y="0" type="line"/>
    </contour>
    <contour>
      <point x="382" y="335" type="line"/>
      <point x="412" y="335"/>
      <point x="466" y="366"/>
      <point x="506" y="416"/>
      <point x="530" y="479"/>
      <point x="530" y="512" type="qcurve"/>
      <point x="530" y="536"/>
      <point x="516" y="579"/>
      <point x="492" y="611"/>
      <point x="459" y="630"/>
      <point x="439" y="630" type="qcurve"/>
      <point x="244" y="630" type="line"/>
      <point x="181" y="335" type="line"/>
    </contour>
    <contour>
      <point x="310" y="805" type="line"/>
      <point x="315" y="829"/>
      <point x="339" y="869"/>
      <point x="374" y="899"/>
      <point x="415" y="916"/>
      <point x="437" y="916" type="qcurve"/>
      <point x="475" y="916"/>
      <point x="522" y="865"/>
      <point x="522" y="829" type="qcurve"/>
      <point x="522" y="817"/>
      <point x="519" y="805" type="qcurve"/>
      <point x="470" y="805" type="line"/>
      <point x="471" y="812"/>
      <point x="472" y="824"/>
      <point x="472" y="830" type="qcurve"/>
      <point x="472" y="873"/>
      <point x="431" y="873" type="qcurve"/>
      <point x="399" y="873"/>
      <point x="367" y="834"/>
      <point x="360" y="805" type="qcurve"/>
    </contour>
  </outline>
</glyph>
<glyph name="Udblgrave" format="1">
  <advance width="724"/>
  <unicode hex="0214"/>
  <outline>
    <contour>
      <point x="298" y="-5" type="qcurve"/>
      <point x="235" y="-5"/>
      <point x="149" y="32"/>
      <point x="95" y="96"/>
      <point x="71" y="182"/>
      <point x="71" y="232" type="qcurve"/>
      <point x="71" y="287"/>
      <point x="85" y="351" type="qcurve"/>
      <point x="161" y="710" type="line"/>
      <point x="251" y="710" type="line"/>
      <point x="175" y="351" type="line"/>
      <point x="163" y="297"/>
      <point x="163" y="247" type="qcurve"/>
      <point x="163" y="211"/>
      <point x="178" y="149"/>
      <point x="214" y="102"/>
      <point x="272" y="76"/>
      <point x="314" y="76" type="qcurve"/>
      <point x="372" y="76"/>
      <point x="458" y="124"/>
      <point x="520" y="201"/>
      <point x="560" y="300"/>
      <point x="571" y="351" type="qcurve"/>
      <point x="647" y="710" type="line"/>
      <point x="737" y="710" type="line"/>
      <point x="661" y="351" type="line"/>
      <point x="646" y="279"/>
      <point x="587" y="150"/>
      <point x="497" y="52"/>
      <point x="376" y="-5"/>
    </contour>
    <contour>
      <point x="472" y="918" type="line"/>
      <point x="546" y="918" type="line"/>
      <point x="576" y="817" type="line"/>
      <point x="526" y="797" type="line"/>
    </contour>
    <contour>
      <point x="340" y="918" type="line"/>
      <point x="415" y="918" type="line"/>
      <point x="444" y="817" type="line"/>
      <point x="394" y="797" type="line"/>
    </contour>
  </outline>
</glyph>
<glyph name="caron" format="1">
  <advance width="327"/>
  <unicode hex="02C7"/>
  <outline>
    <contour>
      <point x="171" y="522" type="move" name="_top"/>
    </contour>
    <contour>
      <point x="75" y="706" type="line"/>
      <point x="128" y="730" type="line"/>
      <point x="195" y="667" type="line"/>
      <point x="289" y="730" type="line"/>
      <point x="332" y="706" type="line"/>
      <point x="216" y="616" type="line"/>
      <point x="152" y="616" type="line"/>
    </contour>
  </outline>
</glyph>
<glyph name="dotaccent" format="1">
  <advance width="174"/>
  <unicode hex="02D9"/>
  <outline>
    <contour>
      <point x="73" y="522" type="move" name="_top"/>
    </contour>
    <contour>
      <point x="56" y="624" type="line"/>
      <point x="79" y="730" type="line"/>
      <point x="158" y="730" type="line"/>
      <point x="136" y="624" type="line"/>
    </contour>
  </outline>
</glyph>
<glyph name="tilde" format="1">
  <advance width="396"/>
  <unicode hex="02DC"/>
  <outline>
    <contour>
      <point x="208" y="522" type="move" name="_top"/>
    </contour>
    <contour>
      <point x="267" y="627" type="qcurve"/>
      <point x="246" y="627"/>
      <point x="216" y="640"/>
      <point x="192" y="656"/>
      <point x="168" y="669"/>
      <point x="153" y="669" type="qcurve"/>
      <point x="137" y="669"/>
      <point x="116" y="655"/>
      <point x="103" y="638"/>
      <point x="97" y="622"/>
      <point x="97" y="621" type="qcurve"/>
      <point x="45" y="621" type="line"/>
      <point x="46" y="627"/>
      <point x="62" y="661"/>
      <point x="92" y="697"/>
      <point x="134" y="724"/>
      <point x="163" y="724" type="qcurve"/>
      <point x="183" y="724"/>
      <point x="211" y="711"/>
      <point x="234" y="694"/>
      <point x="259" y="681"/>
      <point x="276" y="681" type="qcurve"/>
      <point x="294" y="681"/>
      <point x="318" y="695"/>
      <point x="333" y="713"/>
      <point x="340" y="728"/>
      <point x="340" y="730" type="qcurve"/>
      <point x="391" y="730" type="line"/>
      <point x="390" y="724"/>
      <point x="374" y="691"/>
      <point x="343" y="655"/>
      <point x="298" y="627"/>
    </contour>
  </outline>
</glyph>
<glyph name="uni03A9" format="1">
  <advance width="802"/>
  <unicode hex="03A9"/>
  <outline>
    <contour>
      <point x="51" y="79" type="line"/>
      <point x="230" y="79" type="line"/>
      <point x="152" y="123"/>
      <point x="61" y="272"/>
      <point x="61" y="365" type="qcurve"/>
      <point x="61" y="434"/>
      <point x="111" y="561"/>
      <point x="198" y="657"/>
      <point x="317" y="715"/>
      <point x="387" y="715" type="qcurve"/>
      <point x="457" y="715"/>
      <point x="576" y="657"/>
      <point x="663" y="561"/>
      <point x="713" y="434"/>
      <point x="713" y="365" type="qcurve"/>
      <point x="713" y="272"/>
      <point x="622" y="123"/>
      <point x="544" y="79" type="qcurve"/>
      <point x="723" y="79" type="line"/>
      <point x="723" y="0" type="line"/>
      <point x="434" y="0" type="line"/>
      <point x="434" y="79" type="line"/>
      <point x="477" y="93"/>
      <point x="547" y="152"/>
      <point x="596" y="230"/>
      <point x="622" y="320"/>
      <point x="622" y="365" type="qcurve"/>
      <point x="622" y="415"/>
      <point x="589" y="511"/>
      <point x="528" y="587"/>
      <point x="441" y="633"/>
      <point x="387" y="633" type="qcurve"/>
      <point x="333" y="633"/>
      <point x="246" y="587"/>
      <point x="185" y="511"/>
      <point x="152" y="415"/>
      <point x="152" y="365" type="qcurve"/>
      <point x="152" y="320"/>
      <point x="178" y="230"/>
      <point x="227" y="152"/>
      <point x="297" y="93"/>
      <point x="340" y="79" type="qcurve"/>
      <point x="340" y="0" type="line"/>
      <point x="51" y="0" type="line"/>
    </contour>
  </outline>
</glyph>
<glyph name="uni03BC" format="1">
  <advance width="584"/>
  <unicode hex="03BC"/>
  <outline>
    <contour>
      <point x="116" y="522" type="line"/>
      <point x="204" y="522" type="line"/>
      <point x="141" y="226" type="line"/>
      <point x="132" y="187"/>
      <point x="132" y="157" type="qcurve"/>
      <point x="132" y="66"/>
      <point x="212" y="66" type="qcurve"/>
      <point x="261" y="66"/>
      <point x="363" y="135"/>
      <point x="398" y="195" type="qcurve"/>
      <point x="468" y="522" type="line"/>
      <point x="556" y="522" type="line"/>
      <point x="468" y="108" type="line"/>
      <point x="467" y="104"/>
      <point x="466" y="98"/>
      <point x="466" y="95" type="qcurve"/>
      <point x="466" y="77"/>
      <point x="489" y="76" type="qcurve"/>
      <point x="472" y="0" type="line"/>
      <point x="461" y="-2"/>
      <point x="443" y="-4"/>
      <point x="436" y="-4" type="qcurve"/>
      <point x="410" y="-4"/>
      <point x="381" y="19"/>
      <point x="381" y="39" type="qcurve"/>
      <point x="381" y="48"/>
      <point x="385" y="77"/>
      <point x="393" y="112" type="qcurve"/>
      <point x="377" y="88"/>
      <point x="331" y="44"/>
      <point x="277" y="10"/>
      <point x="219" y="-10"/>
      <point x="191" y="-10" type="qcurve"/>
      <point x="148" y="-10"/>
      <point x="106" y="35"/>
      <point x="102" y="67" type="qcurve"/>
      <point x="48" y="-212" type="line"/>
      <point x="-40" y="-212" type="line"/>
    </contour>
  </outline>
</glyph>
<glyph name="Hdotbelow" format="1">
  <advance width="713"/>
  <unicode hex="1E24"/>
  <outline>
    <contour>
      <point x="171" y="710" type="line"/>
      <point x="261" y="710" type="line"/>
      <point x="196" y="403" type="line"/>
      <point x="561" y="403" type="line"/>
      <point x="626" y="710" type="line"/>
      <point x="716" y="710" type="line"/>
      <point x="565" y="0" type="line"/>
      <point x="475" y="0" type="line"/>
      <point x="544" y="323" type="line"/>
      <point x="179" y="323" type="line"/>
      <point x="110" y="0" type="line"/>
      <point x="20" y="0" type="line"/>
    </contour>
    <contour>
      <point x="215" y="-182" type="line"/>
      <point x="238" y="-76" type="line"/>
      <point x="317" y="-76" type="line"/>
      <point x="295" y="-182" type="line"/>
    </contour>
  </outline>
</glyph>
<glyph name="guilsinglright" format="1">
  <advance width="341"/>
  <unicode hex="203A"/>
  <outline>
    <contour>
      <point x="286" y="234" type="line"/>
      <point x="8" y="60" type="line"/>
      <point x="24" y="134" type="line"/>
      <point x="221" y="259" type="line"/>
      <point x="78" y="387" type="line"/>
      <point x="93" y="461" type="line"/>
      <point x="296" y="280" type="line"/>
    </contour>
  </outline>
</glyph>
<glyph name="zerosuperior" format="1">
  <advance width="450"/>
  <unicode hex="2070"/>
  <outline>
    <contour>
      <point x="247" y="399" type="qcurve"/>
      <point x="207" y="399"/>
      <point x="150" y="429"/>
      <point x="113" y="478"/>
      <point x="96" y="538"/>
      <point x="96" y="568" type="qcurve"/>
      <point x="96" y="610"/>
      <point x="133" y="696"/>
      <point x="198" y="766"/>
      <point x="284" y="810"/>
      <point x="334" y="810" type="qcurve"/>
      <point x="373" y="810"/>
      <point x="430" y="779"/>
      <point x="466" y="730"/>
      <point x="483" y="670"/>
      <point x="483" y="640" type="qcurve"/>
      <point x="483" y="598"/>
      <point x="447" y="513"/>
      <point x="383" y="443"/>
      <point x="297" y="399"/>
    </contour>
    <contour>
      <point x="154" y="575" type="qcurve"/>
      <point x="154" y="553"/>
      <point x="166" y="510"/>
      <point x="192" y="475"/>
      <point x="231" y="454"/>
      <point x="258" y="454" type="qcurve"/>
      <point x="297" y="454"/>
      <point x="360" y="489"/>
      <point x="403" y="543"/>
      <point x="427" y="606"/>
      <point x="427" y="633" type="qcurve"/>
      <point x="427" y="655"/>
      <point x="414" y="699"/>
      <point x="388" y="734"/>
      <point x="349" y="755"/>
      <point x="322" y="755" type="qcurve"/>
      <point x="283" y="755"/>
      <point x="221" y="719"/>
      <point x="178" y="665"/>
      <point x="154" y="602"/>
    </contour>
  </outline>
</glyph>
<glyph name="zeroinferior" format="1">
  <advance width="450"/>
  <unicode hex="2080"/>
  <outline>
    <contour>
      <point x="144" y="-85" type="qcurve"/>
      <point x="104" y="-85"/>
      <point x="47" y="-55"/>
      <point x="10" y="-6"/>
      <point x="-7" y="54"/>
      <point x="-7" y="84" type="qcurve"/>
      <point x="-7" y="126"/>
      <point x="30" y="212"/>
      <point x="95" y="282"/>
      <point x="181" y="326"/>
      <point x="231" y="326" type="qcurve"/>
      <point x="270" y="326"/>
      <point x="327" y="295"/>
      <point x="363" y="246"/>
      <point x="380" y="186"/>
      <point x="380" y="156" type="qcurve"/>
      <point x="380" y="114"/>
      <point x="343" y="29"/>
      <point x="280" y="-41"/>
      <point x="193" y="-85"/>
    </contour>
    <contour>
      <point x="50" y="91" type="qcurve"/>
      <point x="50" y="69"/>
      <point x="62" y="26"/>
      <point x="88" y="-9"/>
      <point x="128" y="-30"/>
      <point x="155" y="-30" type="qcurve"/>
      <point x="194" y="-30"/>
      <point x="256" y="5"/>
      <point x="300" y="59"/>
      <point x="324" y="122"/>
      <point x="324" y="149" type="qcurve"/>
      <point x="324" y="171"/>
      <point x="311" y="215"/>
      <point x="285" y="250"/>
      <point x="246" y="271"/>
      <point x="219" y="271" type="qcurve"/>
      <point x="180" y="271"/>
      <point x="118" y="235"/>
      <point x="74" y="181"/>
      <point x="50" y="118"/>
    </contour>
  </outline>
</glyph>
<glyph name="nineinferior" format="1">
  <advance width="400"/>
  <unicode hex="2089"/>
  <outline>
    <contour>
      <point x="5" y="167" type="qcurve"/>
      <point x="5" y="200"/>
      <point x="37" y="259"/>
      <point x="91" y="303"/>
      <point x="162" y="329"/>
      <point x="200" y="329" type="qcurve"/>
      <point x="261" y="329"/>
      <point x="331" y="256"/>
      <point x="331" y="192" type="qcurve"/>
      <point x="331" y="133"/>
      <point x="298" y="32"/>
      <point x="239" y="-42"/>
      <point x="156" y="-85"/>
      <point x="105" y="-85" type="qcurve"/>
      <point x="62" y="-85"/>
      <point x="-3" y="-49"/>
      <point x="-16" y="-16" type="qcurve"/>
      <point x="26" y="21" type="line"/>
      <point x="34" y="-4"/>
      <point x="83" y="-33"/>
      <point x="118" y="-33" type="qcurve"/>
      <point x="169" y="-33"/>
      <point x="250" y="41"/>
      <point x="265" y="110" type="qcurve"/>
      <point x="245" y="84"/>
      <point x="173" y="52"/>
      <point x="137" y="52" type="qcurve"/>
      <point x="77" y="52"/>
      <point x="5" y="118"/>
    </contour>
    <contour>
      <point x="188" y="278" type="qcurve"/>
      <point x="163" y="278"/>
      <point x="117" y="261"/>
      <point x="81" y="233"/>
      <point x="59" y="197"/>
      <point x="59" y="177" type="qcurve"/>
      <point x="59" y="145"/>
      <point x="111" y="101"/>
      <point x="151" y="101" type="qcurve"/>
      <point x="175" y="101"/>
      <point x="221" y="117"/>
      <point x="257" y="145"/>
      <point x="279" y="181"/>
      <point x="279" y="201" type="qcurve"/>
      <point x="279" y="233"/>
      <point x="228" y="278"/>
    </contour>
  </outline>
</glyph>
<glyph name="trademark" format="1">
  <advance width="731"/>
  <unicode hex="2122"/>
  <outline>
    <contour>
      <point x="373" y="652" type="line"/>
      <point x="283" y="652" type="line"/>
      <point x="234" y="420" type="line"/>
      <point x="174" y="420" type="line"/>
      <point x="223" y="652" type="line"/>
      <point x="133" y="652" type="line"/>
      <point x="146" y="712" type="line"/>
      <point x="386" y="712" type="line"/>
    </contour>
    <contour>
      <point x="429" y="710" type="line"/>
      <point x="514" y="710" type="line"/>
      <point x="548" y="532" type="line"/>
      <point x="657" y="710" type="line"/>
      <point x="743" y="710" type="line"/>
      <point x="681" y="420" type="line"/>
      <point x="621" y="420" type="line"/>
      <point x="666" y="628" type="line"/>
      <point x="557" y="462" type="line"/>
      <point x="509" y="462" type="line"/>
      <point x="471" y="628" type="line"/>
      <point x="427" y="420" type="line"/>
      <point x="367" y="420" type="line"/>
    </contour>
  </outline>
</glyph>
<glyph name="lessequal" format="1">
  <advance width="460"/>
  <unicode hex="2264"/>
  <outline>
    <contour>
      <point x="51" y="51" type="line"/>
      <point x="51" y="123" type="line"/>
      <point x="383" y="123" type="line"/>
      <point x="383" y="51" type="line"/>
    </contour>
    <contour>
      <point x="50" y="390" type="line"/>
      <point x="380" y="553" type="line"/>
      <point x="380" y="469" type="line"/>
      <point x="178" y="369" type="line"/>
      <point x="380" y="272" type="line"/>
      <point x="380" y="184" type="line"/>
      <point x="50" y="344" type="line"/>
    </contour>
  </outline>
</glyph>
<glyph name="f_l" format="1">
  <advance width="585"/>
  <unicode hex="FB02"/>
  <outline>
    <contour>
      <point x="417" y="-7" type="qcurve"/>
      <point x="373" y="-7"/>
      <point x="329" y="38"/>
      <point x="329" y="72" type="qcurve"/>
      <point x="329" y="80"/>
      <point x="332" y="99"/>
      <point x="335" y="114" type="qcurve"/>
      <point x="429" y="553" type="line"/>
      <point x="431" y="561"/>
      <point x="433" y="579"/>
      <point x="433" y="587" type="qcurve"/>
      <point x="433" y="617"/>
      <point x="400" y="664"/>
      <point x="357" y="664" type="qcurve"/>
      <point x="306" y="664"/>
      <point x="244" y="590"/>
      <point x="231" y="531" type="qcurve"/>
      <point x="229" y="522" type="line"/>
      <point x="325" y="522" type="line"/>
      <point x="311" y="453" type="line"/>
      <point x="214" y="453" type="line"/>
      <point x="118" y="0" type="line"/>
      <point x="30" y="0" type="line"/>
      <point x="126" y="453" type="line"/>
      <point x="59" y="453" type="line"/>
      <point x="74" y="522" type="line"/>
      <point x="141" y="522" type="line"/>
      <point x="145" y="540" type="line"/>
      <point x="165" y="631"/>
      <point x="281" y="740"/>
      <point x="372" y="740" type="qcurve"/>
      <point x="451" y="740"/>
      <point x="526" y="672"/>
      <point x="526" y="615" type="qcurve"/>
      <point x="526" y="604"/>
      <point x="523" y="583"/>
      <point x="521" y="572" type="qcurve"/>
      <point x="428" y="133" type="line"/>
      <point x="426" y="123"/>
      <point x="426" y="117" type="qcurve"/>
      <point x="426" y="100"/>
      <point x="444" y="72"/>
      <point x="465" y="72" type="qcurve"/>
      <point x="474" y="72"/>
      <point x="495" y="76"/>
      <point x="513" y="80"/>
      <point x="526" y="84"/>
      <point x="526" y="84" type="qcurve"/>
      <point x="522" y="12" type="line"/>
      <point x="521" y="11"/>
      <point x="502" y="5"/>
      <point x="472" y="-2"/>
      <point x="435" y="-7"/>
    </contour>
  </outline>
</glyph>
<glyph name="f_f_i" format="1">
  <advance width="736"/>
  <unicode hex="FB03"/>
  <outline>
    <contour>
      <point x="126" y="453" type="line"/>
      <point x="59" y="453" type="line"/>
      <point x="74" y="522" type="line"/>
      <point x="141" y="522" type="line"/>
      <point x="142" y="526" type="line"/>
      <point x="149" y="557"/>
      <point x="183" y="620"/>
      <point x="233" y="671"/>
      <point x="298" y="702"/>
      <point x="336" y="702" type="qcurve"/>
      <point x="371" y="702"/>
      <point x="424" y="686"/>
      <point x="444" y="675" type="qcurve"/>
      <point x="473" y="704"/>
      <point x="553" y="740"/>
      <point x="602" y="740" type="qcurve"/>
      <point x="652" y="740"/>
      <point x="727" y="705"/>
      <point x="750" y="688" type="qcurve"/>
      <point x="699" y="623" type="line"/>
      <point x="684" y="640"/>
      <point x="627" y="664"/>
      <point x="594" y="664" type="qcurve"/>
      <point x="566" y="664"/>
      <point x="521" y="641"/>
      <point x="488" y="605"/>
      <point x="467" y="559"/>
      <point x="462" y="536" type="qcurve"/>
      <point x="459" y="522" type="line"/>
      <point x="714" y="522" type="line"/>
      <point x="603" y="0" type="line"/>
      <point x="515" y="0" type="line"/>
      <point x="611" y="453" type="line"/>
      <point x="444" y="453" type="line"/>
      <point x="348" y="0" type="line"/>
      <point x="260" y="0" type="line"/>
      <point x="356" y="453" type="line"/>
      <point x="214" y="453" type="line"/>
      <point x="118" y="0" type="line"/>
      <point x="30" y="0" type="line"/>
    </contour>
    <contour>
      <point x="371" y="522" type="line"/>
      <point x="375" y="541"/>
      <point x="393" y="592"/>
      <point x="404" y="608" type="qcurve"/>
      <point x="391" y="619"/>
      <point x="353" y="626"/>
      <point x="336" y="626" type="qcurve"/>
      <point x="313" y="626"/>
      <point x="277" y="609"/>
      <point x="250" y="581"/>
      <point x="234" y="545"/>
      <point x="230" y="527" type="qcurve"/>
      <point x="229" y="522" type="line"/>
    </contour>
  </outline>
</glyph>
<glyph name="f_f_l" format="1">
  <advance width="817"/>
  <unicode hex="FB04"/>
  <outline>
    <contour>
      <point x="650" y="-7" type="qcurve"/>
      <point x="605" y="-7"/>
      <point x="561" y="38"/>
      <point x="561" y="72" type="qcurve"/>
      <point x="561" y="83"/>
      <point x="564" y="102"/>
      <point x="568" y="119" type="qcurve"/>
      <point x="661" y="553" type="line"/>
      <point x="663" y="561"/>
      <point x="665" y="579"/>
      <point x="665" y="587" type="qcurve"/>
      <point x="665" y="618"/>
      <point x="633" y="664"/>
      <point x="590" y="664" type="qcurve"/>
      <point x="563" y="664"/>
      <point x="522" y="642"/>
      <point x="491" y="604"/>
      <point x="470" y="554"/>
      <point x="463" y="526" type="qcurve"/>
      <point x="462" y="522" type="line"/>
      <point x="557" y="522" type="line"/>
      <point x="543" y="453" type="line"/>
      <point x="447" y="453" type="line"/>
      <point x="351" y="0" type="line"/>
      <point x="263" y="0" type="line"/>
      <point x="359" y="453" type="line"/>
      <point x="214" y="453" type="line"/>
      <point x="118" y="0" type="line"/>
      <point x="30" y="0" type="line"/>
      <point x="126" y="453" type="line"/>
      <point x="59" y="453" type="line"/>
      <point x="74" y="522" type="line"/>
      <point x="141" y="522" type="line"/>
      <point x="142" y="526" type="line"/>
      <point x="150" y="560"/>
      <point x="186" y="623"/>
      <point x="238" y="672"/>
      <point x="303" y="702"/>
      <point x="341" y="702" type="qcurve"/>
      <point x="376" y="702"/>
      <point x="424" y="686"/>
      <point x="444" y="675" type="qcurve"/>
      <point x="506" y="740"/>
      <point x="605" y="740" type="qcurve"/>
      <point x="683" y="740"/>
      <point x="758" y="672"/>
      <point x="758" y="615" type="qcurve"/>
      <point x="758" y="597"/>
      <point x="753" y="572" type="qcurve"/>
      <point x="660" y="133" type="line"/>
      <point x="658" y="123"/>
      <point x="658" y="116" type="qcurve"/>
      <point x="658" y="99"/>
      <point x="676" y="72"/>
      <point x="697" y="72" type="qcurve"/>
      <point x="706" y="72"/>
      <point x="727" y="76"/>
      <point x="745" y="80"/>
      <point x="758" y="84"/>
      <point x="759" y="84" type="qcurve"/>
      <point x="754" y="12" type="line"/>
      <point x="754" y="11"/>
      <point x="735" y="5"/>
      <point x="705" y="-2"/>
      <point x="668" y="-7"/>
    </contour>
    <contour>
      <point x="374" y="522" type="line"/>
      <point x="379" y="543"/>
      <point x="394" y="595"/>
      <point x="403" y="609" type="qcurve"/>
      <point x="390" y="620"/>
      <point x="357" y="626"/>
      <point x="342" y="626" type="qcurve"/>
      <point x="319" y="626"/>
      <point x="281" y="609"/>
      <point x="252" y="581"/>
      <point x="233" y="546"/>
      <point x="230" y="529" type="qcurve"/>
      <point x="229" y="522" type="line"/>
    </contour>
  </outline>
</glyph>
<glyph name="G.alt" format="1">
  <advance width="699"/>
  <outline>
    <contour>
      <point x="301" y="-5" type="qcurve"/>
      <point x="240" y="-5"/>
      <point x="145" y="44"/>
      <point x="79" y="125"/>
      <point x="45" y="232"/>
      <point x="45" y="291" type="qcurve"/>
      <point x="45" y="370"/>
      <point x="111" y="522"/>
      <point x="222" y="642"/>
      <point x="370" y="715"/>
      <point x="452" y="715" type="qcurve"/>
      <point x="537" y="715"/>
      <point x="652" y="632"/>
      <point x="677" y="563" type="qcurve"/>
      <point x="594" y="506" type="line"/>
      <point x="587" y="528"/>
      <point x="561" y="574"/>
      <point x="520" y="611"/>
      <point x="466" y="634"/>
      <point x="430" y="634" type="qcurve"/>
      <point x="369" y="634"/>
      <point x="262" y="573"/>
      <point x="182" y="477"/>
      <point x="136" y="357"/>
      <point x="136" y="297" type="qcurve"/>
      <point x="136" y="254"/>
      <point x="158" y="174"/>
      <point x="202" y="113"/>
      <point x="267" y="76"/>
      <point x="311" y="76" type="qcurve"/>
      <point x="354" y="76"/>
      <point x="434" y="110"/>
      <point x="502" y="166"/>
      <point x="555" y="238"/>
      <point x="570" y="277" type="qcurve"/>
      <point x="391" y="277" type="line"/>
      <point x="408" y="357" type="line"/>
      <point x="685" y="357" type="line"/>
      <point x="685" y="355"/>
      <point x="681" y="341"/>
      <point x="677" y="325"/>
      <point x="674" y="310"/>
      <point x="673" y="308" type="qcurve"/>
      <point x="655" y="245"/>
      <point x="583" y="132"/>
      <point x="485" y="46"/>
      <point x="366" y="-5"/>
    </contour>
  </outline>
</glyph>
<glyph name="J.sc" format="1">
  <advance width="417"/>
  <outline>
    <contour>
      <point x="307" y="707" type="move" name="top"/>
    </contour>
    <contour>
      <point x="82" y="-8" type="qcurve"/>
      <point x="8" y="-8"/>
      <point x="-37" y="25" type="qcurve"/>
      <point x="-2" y="91" type="line"/>
      <point x="10" y="81"/>
      <point x="62" y="63"/>
      <point x="97" y="63" type="qcurve"/>
      <point x="137" y="63"/>
      <point x="189" y="90"/>
      <point x="225" y="142"/>
      <point x="249" y="220"/>
      <point x="260" y="271" type="qcurve"/>
      <point x="320" y="551" type="line"/>
      <point x="400" y="551" type="line"/>
      <point x="340" y="271" type="line"/>
      <point x="326" y="208"/>
      <point x="292" y="105"/>
      <point x="235" y="32"/>
      <point x="148" y="-8"/>
    </contour>
  </outline>
</glyph>
<glyph name="W.sc" format="1">
  <advance width="865"/>
  <outline>
    <contour>
      <point x="435" y="707" type="move" name="top"/>
    </contour>
    <contour>
      <point x="62" y="551" type="line"/>
      <point x="149" y="551" type="line"/>
      <point x="246" y="97" type="line"/>
      <point x="380" y="305" type="line"/>
      <point x="332" y="548" type="line"/>
      <point x="407" y="548" type="line"/>
      <point x="441" y="359" type="line"/>
      <point x="556" y="548" type="line"/>
      <point x="631" y="548" type="line"/>
      <point x="480" y="305" type="line"/>
      <point x="527" y="97" type="line"/>
      <point x="816" y="551" type="line"/>
      <point x="904" y="551" type="line"/>
      <point x="546" y="0" type="line"/>
      <point x="478" y="0" type="line"/>
      <point x="419" y="252" type="line"/>
      <point x="254" y="0" type="line"/>
      <point x="184" y="0" type="line"/>
    </contour>
  </outline>
</glyph>
<glyph name="c_t" format="1">
  <advance width="862"/>
  <outline>
    <contour>
      <point x="224" y="-10" type="qcurve"/>
      <point x="175" y="-10"/>
      <point x="99" y="26"/>
      <point x="48" y="87"/>
      <point x="22" y="166"/>
      <point x="22" y="210" type="qcurve"/>
      <point x="22" y="269"/>
      <point x="70" y="384"/>
      <point x="154" y="475"/>
      <point x="269" y="531"/>
      <point x="337" y="531" type="qcurve"/>
      <point x="384" y="531"/>
      <point x="443" y="508"/>
      <point x="467" y="488" type="qcurve"/>
      <point x="462" y="505"/>
      <point x="452" y="551"/>
      <point x="452" y="574" type="qcurve"/>
      <point x="452" y="610"/>
      <point x="478" y="672"/>
      <point x="526" y="718"/>
      <point x="596" y="744"/>
      <point x="641" y="744" type="qcurve"/>
      <point x="679" y="744"/>
      <point x="729" y="729"/>
      <point x="759" y="702"/>
      <point x="771" y="664"/>
      <point x="771" y="641" type="qcurve"/>
      <point x="771" y="615"/>
      <point x="761" y="555"/>
      <point x="753" y="522" type="qcurve"/>
      <point x="863" y="522" type="line"/>
      <point x="848" y="453" type="line"/>
      <point x="738" y="453" type="line"/>
      <point x="670" y="129" type="line"/>
      <point x="669" y="125"/>
      <point x="669" y="118"/>
      <point x="669" y="115" type="qcurve"/>
      <point x="669" y="94"/>
      <point x="694" y="74"/>
      <point x="713" y="74" type="qcurve"/>
      <point x="738" y="74"/>
      <point x="782" y="92"/>
      <point x="791" y="96" type="qcurve"/>
      <point x="795" y="26" type="line"/>
      <point x="778" y="18"/>
      <point x="707" y="-7"/>
      <point x="666" y="-7" type="qcurve"/>
      <point x="626" y="-7"/>
      <point x="573" y="31"/>
      <point x="573" y="73" type="qcurve"/>
      <point x="573" y="87"/>
      <point x="576" y="102" type="qcurve"/>
      <point x="651" y="453" type="line"/>
      <point x="583" y="453" type="line"/>
      <point x="598" y="522" type="line"/>
      <point x="665" y="522" type="line"/>
      <point x="672" y="553"/>
      <point x="682" y="607"/>
      <point x="682" y="629" type="qcurve"/>
      <point x="682" y="662"/>
      <point x="650" y="700"/>
      <point x="608" y="700" type="qcurve"/>
      <point x="579" y="700"/>
      <point x="535" y="678"/>
      <point x="507" y="640"/>
      <point x="493" y="592"/>
      <point x="493" y="567" type="qcurve"/>
      <point x="493" y="545"/>
      <point x="500" y="497"/>
      <point x="510" y="452"/>
      <point x="520" y="415"/>
      <point x="522" y="404" type="qcurve"/>
      <point x="431" y="377" type="line"/>
      <point x="418" y="417"/>
      <point x="360" y="455"/>
      <point x="318" y="455" type="qcurve"/>
      <point x="276" y="455"/>
      <point x="201" y="413"/>
      <point x="145" y="347"/>
      <point x="113" y="263"/>
      <point x="113" y="221" type="qcurve"/>
      <point x="113" y="189"/>
      <point x="131" y="132"/>
      <point x="164" y="90"/>
      <point x="211" y="66"/>
      <point x="240" y="66" type="qcurve"/>
      <point x="258" y="66"/>
      <point x="301" y="77"/>
      <point x="341" y="98"/>
      <point x="376" y="128"/>
      <point x="386" y="147" type="qcurve"/>
      <point x="466" y="121" type="line"/>
      <point x="448" y="90"/>
      <point x="394" y="42"/>
      <point x="329" y="8"/>
      <point x="259" y="-10"/>
    </contour>
  </outline>
</glyph>
<glyph name="five.denominator" format="1">
  <advance width="369"/>
  <outline>
    <contour>
      <point x="111" y="-5" type="qcurve"/>
      <point x="63" y="-5"/>
      <point x="-6" y="35"/>
      <point x="-19" y="68" type="qcurve"/>
      <point x="23" y="102" type="line"/>
      <point x="36" y="77"/>
      <point x="88" y="47"/>
      <point x="125" y="47" type="qcurve"/>
      <point x="149" y="47"/>
      <point x="193" y="61"/>
      <point x="226" y="88"/>
      <point x="246" y="124"/>
      <point x="246" y="147" type="qcurve"/>
      <point x="246" y="182"/>
      <point x="196" y="217"/>
      <point x="165" y="217" type="qcurve"/>
      <point x="137" y="217"/>
      <point x="80" y="191"/>
      <point x="62" y="170" type="qcurve"/>
      <point x="12" y="170" type="line"/>
      <point x="21" y="191"/>
      <point x="50" y="258"/>
      <point x="81" y="328"/>
      <point x="108" y="390"/>
      <point x="114" y="406" type="qcurve"/>
      <point x="333" y="406" type="line"/>
      <point x="321" y="351" type="line"/>
      <point x="143" y="351" type="line"/>
      <point x="90" y="234" type="line"/>
      <point x="107" y="246"/>
      <point x="153" y="260"/>
      <point x="179" y="260" type="qcurve"/>
      <point x="235" y="260"/>
      <point x="303" y="200"/>
      <point x="303" y="152" type="qcurve"/>
      <point x="303" y="118"/>
      <point x="271" y="60"/>
      <point x="218" y="18"/>
      <point x="149" y="-5"/>
    </contour>
  </outline>
</glyph>
<glyph name="five.lnum" format="1">
  <advance width="539"/>
  <outline>
    <contour>
      <point x="191" y="-10" type="qcurve"/>
      <point x="119" y="-10"/>
      <point x="18" y="62"/>
      <point x="1" y="123" type="qcurve"/>
      <point x="66" y="171" type="line"/>
      <point x="83" y="124"/>
      <point x="157" y="69"/>
      <point x="208" y="69" type="qcurve"/>
      <point x="245" y="69"/>
      <point x="312" y="98"/>
      <point x="363" y="148"/>
      <point x="394" y="216"/>
      <point x="394" y="255" type="qcurve"/>
      <point x="394" y="309"/>
      <point x="332" y="377"/>
      <point x="281" y="377" type="qcurve"/>
      <point x="242" y="377"/>
      <point x="163" y="339"/>
      <point x="134" y="304" type="qcurve"/>
      <point x="55" y="304" type="line"/>
      <point x="58" y="311"/>
      <point x="85" y="377"/>
      <point x="120" y="467"/>
      <point x="161" y="568"/>
      <point x="194" y="654"/>
      <point x="217" y="710"/>
      <point x="217" y="710" type="qcurve"/>
      <point x="546" y="710" type="line"/>
      <point x="528" y="629" type="line"/>
      <point x="265" y="629" type="line"/>
      <point x="177" y="403" type="line"/>
      <point x="230" y="453"/>
      <point x="308" y="453" type="qcurve"/>
      <point x="348" y="453"/>
      <point x="414" y="426"/>
      <point x="460" y="378"/>
      <point x="486" y="311"/>
      <point x="486" y="271" type="qcurve"/>
      <point x="486" y="210"/>
      <point x="437" y="107"/>
      <point x="355" y="32"/>
      <point x="249" y="-10"/>
    </contour>
  </outline>
</glyph>
<glyph name="five.numerator" format="1">
  <advance width="368"/>
  <outline>
    <contour>
      <point x="247" y="584" type="qcurve"/>
      <point x="303" y="584"/>
      <point x="371" y="525"/>
      <point x="371" y="477" type="qcurve"/>
      <point x="371" y="442"/>
      <point x="339" y="384"/>
      <point x="286" y="342"/>
      <point x="216" y="319"/>
      <point x="178" y="319" type="qcurve"/>
      <point x="130" y="319"/>
      <point x="61" y="359"/>
      <point x="49" y="393" type="qcurve"/>
      <point x="91" y="427" type="line"/>
      <point x="103" y="401"/>
      <point x="156" y="372"/>
      <point x="193" y="372" type="qcurve"/>
      <point x="217" y="372"/>
      <point x="261" y="386"/>
      <point x="294" y="412"/>
      <point x="314" y="448"/>
      <point x="314" y="471" type="qcurve"/>
      <point x="314" y="506"/>
      <point x="264" y="541"/>
      <point x="233" y="541" type="qcurve"/>
      <point x="205" y="541"/>
      <point x="148" y="515"/>
      <point x="130" y="494" type="qcurve"/>
      <point x="80" y="494" type="line"/>
      <point x="89" y="515"/>
      <point x="118" y="582"/>
      <point x="149" y="652"/>
      <point x="176" y="714"/>
      <point x="182" y="730" type="qcurve"/>
      <point x="401" y="730" type="line"/>
      <point x="389" y="675" type="line"/>
      <point x="211" y="675" type="line"/>
      <point x="158" y="558" type="line"/>
      <point x="175" y="570"/>
      <point x="221" y="584"/>
    </contour>
  </outline>
</glyph>
<glyph name="nine.denominator" format="1">
  <advance width="399"/>
  <outline>
    <contour>
      <point x="122" y="-5" type="qcurve"/>
      <point x="78" y="-5"/>
      <point x="14" y="31"/>
      <point x="1" y="64" type="qcurve"/>
      <point x="43" y="101" type="line"/>
      <point x="51" y="76"/>
      <point x="100" y="47"/>
      <point x="135" y="47" type="qcurve"/>
      <point x="186" y="47"/>
      <point x="267" y="121"/>
      <point x="282" y="190" type="qcurve"/>
      <point x="262" y="164"/>
      <point x="190" y="132"/>
      <point x="154" y="132" type="qcurve"/>
      <point x="94" y="132"/>
      <point x="22" y="198"/>
      <point x="22" y="247" type="qcurve"/>
      <point x="22" y="280"/>
      <point x="54" y="339"/>
      <point x="108" y="383"/>
      <point x="179" y="409"/>
      <point x="217" y="409" type="qcurve"/>
      <point x="278" y="409"/>
      <point x="348" y="336"/>
      <point x="348" y="272" type="qcurve"/>
      <point x="348" y="213"/>
      <point x="315" y="112"/>
      <point x="255" y="38"/>
      <point x="172" y="-5"/>
    </contour>
    <contour>
      <point x="168" y="181" type="qcurve"/>
      <point x="192" y="181"/>
      <point x="238" y="197"/>
      <point x="274" y="225"/>
      <point x="296" y="261"/>
      <point x="296" y="281" type="qcurve"/>
      <point x="296" y="313"/>
      <point x="245" y="358"/>
      <point x="205" y="358" type="qcurve"/>
      <point x="181" y="358"/>
      <point x="134" y="341"/>
      <point x="98" y="313"/>
      <point x="76" y="277"/>
      <point x="76" y="257" type="qcurve"/>
      <point x="76" y="225"/>
      <point x="128" y="181"/>
    </contour>
  </outline>
</glyph>
<glyph name="one.numerator" format="1">
  <advance width="269"/>
  <outline>
    <contour>
      <point x="265" y="375" type="line"/>
      <point x="253" y="320" type="line"/>
      <point x="52" y="320" type="line"/>
      <point x="64" y="375" type="line"/>
      <point x="140" y="375" type="line"/>
      <point x="202" y="669" type="line"/>
      <point x="196" y="663"/>
      <point x="171" y="646"/>
      <point x="142" y="631"/>
      <point x="113" y="620"/>
      <point x="101" y="620" type="qcurve"/>
      <point x="113" y="675" type="line"/>
      <point x="128" y="675"/>
      <point x="163" y="692"/>
      <point x="194" y="712"/>
      <point x="215" y="730"/>
      <point x="215" y="731" type="qcurve"/>
      <point x="271" y="731" type="line"/>
      <point x="195" y="375" type="line"/>
    </contour>
  </outline>
</glyph>
<glyph name="six.denominator" format="1">
  <advance width="398"/>
  <outline>
    <contour>
      <point x="139" y="-5" type="qcurve"/>
      <point x="78" y="-5"/>
      <point x="9" y="67"/>
      <point x="9" y="132" type="qcurve"/>
      <point x="9" y="190"/>
      <point x="42" y="292"/>
      <point x="102" y="366"/>
      <point x="185" y="409"/>
      <point x="235" y="409" type="qcurve"/>
      <point x="278" y="409"/>
      <point x="342" y="373"/>
      <point x="354" y="340" type="qcurve"/>
      <point x="314" y="303" type="line"/>
      <point x="306" y="328"/>
      <point x="255" y="357"/>
      <point x="222" y="357" type="qcurve"/>
      <point x="169" y="357"/>
      <point x="90" y="282"/>
      <point x="75" y="213" type="qcurve"/>
      <point x="85" y="226"/>
      <point x="114" y="248"/>
      <point x="148" y="263"/>
      <point x="184" y="271"/>
      <point x="202" y="271" type="qcurve"/>
      <point x="262" y="271"/>
      <point x="334" y="205"/>
      <point x="334" y="156" type="qcurve"/>
      <point x="334" y="123"/>
      <point x="302" y="65"/>
      <point x="248" y="21"/>
      <point x="178" y="-5"/>
    </contour>
    <contour>
      <point x="152" y="45" type="qcurve"/>
      <point x="176" y="45"/>
      <point x="222" y="62"/>
      <point x="258" y="90"/>
      <point x="280" y="126"/>
      <point x="280" y="146" type="qcurve"/>
      <point x="280" y="178"/>
      <point x="230" y="223"/>
      <point x="189" y="223" type="qcurve"/>
      <point x="164" y="223"/>
      <point x="117" y="207"/>
      <point x="81" y="179"/>
      <point x="59" y="143"/>
      <point x="59" y="123" type="qcurve"/>
      <point x="59" y="91"/>
      <point x="112" y="45"/>
    </contour>
  </outline>
</glyph>
<glyph name="three.lnum" format="1">
  <advance width="559"/>
  <outline>
    <contour>
      <point x="201" y="-9" type="qcurve"/>
      <point x="112" y="-9"/>
      <point x="10" y="76"/>
      <point x="10" y="148" type="qcurve"/>
      <point x="71" y="201" type="line"/>
      <point x="71" y="175"/>
      <point x="88" y="129"/>
      <point x="123" y="94"/>
      <point x="176" y="73"/>
      <point x="213" y="73" type="qcurve"/>
      <point x="250" y="73"/>
      <point x="317" y="94"/>
      <point x="368" y="131"/>
      <point x="398" y="183"/>
      <point x="398" y="214" type="qcurve"/>
      <point x="398" y="269"/>
      <point x="302" y="326"/>
      <point x="214" y="326" type="qcurve"/>
      <point x="182" y="326" type="line"/>
      <point x="198" y="401" type="line"/>
      <point x="230" y="401" type="line"/>
      <point x="278" y="401"/>
      <point x="359" y="419"/>
      <point x="416" y="453"/>
      <point x="448" y="505"/>
      <point x="448" y="538" type="qcurve"/>
      <point x="448" y="587"/>
      <point x="384" y="641"/>
      <point x="333" y="641" type="qcurve"/>
      <point x="305" y="641"/>
      <point x="252" y="626"/>
      <point x="205" y="600"/>
      <point x="168" y="565"/>
      <point x="156" y="546" type="qcurve"/>
      <point x="110" y="607" type="line"/>
      <point x="130" y="633"/>
      <point x="185" y="675"/>
      <point x="249" y="704"/>
      <point x="318" y="719"/>
      <point x="352" y="719" type="qcurve"/>
      <point x="395" y="719"/>
      <point x="466" y="694"/>
      <point x="516" y="649"/>
      <point x="543" y="588"/>
      <point x="543" y="551" type="qcurve"/>
      <point x="543" y="486"/>
      <point x="458" y="387"/>
      <point x="375" y="367" type="qcurve"/>
      <point x="429" y="356"/>
      <point x="488" y="275"/>
      <point x="488" y="218" type="qcurve"/>
      <point x="488" y="165"/>
      <point x="438" y="81"/>
      <point x="356" y="22"/>
      <point x="253" y="-9"/>
    </contour>
  </outline>
</glyph>
<glyph name="three.numerator" format="1">
  <advance width="379"/>
  <outline>
    <contour>
      <point x="184" y="314" type="qcurve"/>
      <point x="124" y="314"/>
      <point x="54" y="360"/>
      <point x="52" y="400" type="qcurve"/>
      <point x="92" y="438" type="line"/>
      <point x="92" y="427"/>
      <point x="105" y="403"/>
      <point x="130" y="383"/>
      <point x="169" y="370"/>
      <point x="195" y="370" type="qcurve"/>
      <point x="219" y="370"/>
      <point x="263" y="380"/>
      <point x="296" y="400"/>
      <point x="316" y="426"/>
      <point x="316" y="443" type="qcurve"/>
      <point x="316" y="472"/>
      <point x="248" y="503"/>
      <point x="188" y="503" type="qcurve"/>
      <point x="166" y="503" type="line"/>
      <point x="176" y="554" type="line"/>
      <point x="198" y="554" type="line"/>
      <point x="264" y="554"/>
      <point x="341" y="589"/>
      <point x="341" y="625" type="qcurve"/>
      <point x="341" y="651"/>
      <point x="293" y="680"/>
      <point x="260" y="680" type="qcurve"/>
      <point x="222" y="680"/>
      <point x="159" y="650"/>
      <point x="139" y="626" type="qcurve"/>
      <point x="112" y="669" type="line"/>
      <point x="137" y="698"/>
      <point x="224" y="731"/>
      <point x="271" y="731" type="qcurve"/>
      <point x="330" y="731"/>
      <point x="401" y="677"/>
      <point x="401" y="635" type="qcurve"/>
      <point x="401" y="594"/>
      <point x="344" y="542"/>
      <point x="292" y="531" type="qcurve"/>
      <point x="330" y="525"/>
      <point x="371" y="477"/>
      <point x="371" y="445" type="qcurve"/>
      <point x="371" y="413"/>
      <point x="339" y="365"/>
      <point x="286" y="331"/>
      <point x="219" y="314"/>
    </contour>
  </outline>
</glyph>
